<svg width="89" height="88" viewBox="0 0 89 88" fill="none" xmlns="http://www.w3.org/2000/svg">
    <g clip-path="url(#clip0_78_27313)">
        <path d="M38.7498 87.5595C36.8838 87.5804 35.0245 87.3312 33.2299 86.8195C29.0855 85.6906 25.2655 83.6008 22.0799 80.7195C21.2325 79.9528 20.5781 78.9968 20.1699 77.9295C13.8632 61.6428 7.52988 45.3528 1.16988 29.0595C0.779881 28.0595 0.399847 27.0595 0.00984693 26.0595C-0.120153 25.7295 0.00982252 25.5495 0.359823 25.3895L2.77987 24.3895L57.6898 1.10946C58.0098 0.969461 58.3298 0.829467 58.6898 0.709467C59.0498 0.589467 59.2998 0.609455 59.4898 1.00945C59.6798 1.40945 59.8698 1.81946 60.0498 2.22946C68.2898 20.8495 76.5365 39.4661 84.7899 58.0795C86.0299 60.8795 87.2632 63.6828 88.4898 66.4895C88.5625 66.6272 88.6228 66.7711 88.6699 66.9195C88.7001 66.9831 88.716 67.0526 88.7164 67.1231C88.7168 67.1935 88.7016 67.2632 88.672 67.3272C88.6424 67.3911 88.5991 67.4478 88.5452 67.4931C88.4912 67.5385 88.4279 67.5713 88.3598 67.5895C87.9498 67.7795 87.5298 67.9595 87.1098 68.1295L41.2199 86.8795C40.9099 87.0095 40.5998 87.1195 40.2998 87.2595C39.8127 87.4762 39.2826 87.5788 38.7498 87.5595ZM0.749837 26.0195L21.3098 78.6895H21.5399H21.8499C23.9581 78.59 26.0266 78.0805 27.9398 77.1895C29.3257 76.4846 30.6106 75.5966 31.7598 74.5495C32.0998 74.2595 32.4398 73.9495 32.7598 73.6795C32.8364 73.5932 32.9313 73.5252 33.0377 73.4806C33.144 73.4359 33.259 73.4157 33.3742 73.4215C33.4894 73.4273 33.6018 73.4588 33.7032 73.5138C33.8046 73.5689 33.8923 73.646 33.9599 73.7395C34.3759 74.1783 34.7601 74.6461 35.1098 75.1395C36.2863 76.8673 37.2911 78.7061 38.1098 80.6295C38.9359 82.3895 39.4921 84.2638 39.7598 86.1895C39.7874 86.2861 39.8242 86.3799 39.8698 86.4695L87.8698 66.8895C78.1832 45.0228 68.5165 23.1728 58.8698 1.33947L0.749837 26.0195ZM33.4298 74.0695L33.0498 74.4195C31.8005 75.6352 30.4068 76.6931 28.8999 77.5695C26.9048 78.6142 24.7161 79.2371 22.4699 79.3995L21.9298 79.4595C21.9407 79.519 21.9609 79.5764 21.9898 79.6295L22.3198 79.9495C25.2488 82.614 28.7175 84.6161 32.4898 85.8195C34.3257 86.4224 36.2385 86.7591 38.1699 86.8195C38.4399 86.8195 38.7098 86.8195 39.0698 86.8195C39.0524 86.3362 38.9989 85.8548 38.9099 85.3795C38.6099 84.2995 38.3099 83.2195 37.9099 82.1795C36.9297 79.4672 35.5513 76.9159 33.8198 74.6095C33.7498 74.3995 33.6399 74.2495 33.4699 74.0695H33.4298Z" fill="#494949"/>
        <path d="M66.8002 34.4896C66.8411 34.5382 66.8698 34.5958 66.884 34.6577C66.8982 34.7196 66.8975 34.7841 66.8819 34.8456C66.8663 34.9072 66.8362 34.9642 66.7941 35.0118C66.7521 35.0594 66.6993 35.0964 66.6402 35.1196C65.4902 35.8196 64.3402 36.5196 63.1702 37.1196C62.5274 37.4185 61.8083 37.5127 61.1102 37.3895L60.0602 37.2796C59.1304 37.1563 58.1862 37.35 57.3802 37.8295C56.7202 38.2495 56.0702 38.6996 55.3802 39.1496C54.9102 39.4796 54.4602 39.8396 54.0002 40.1496C52.8703 40.9649 51.5228 41.4245 50.1302 41.4696C49.1902 41.4696 48.2402 41.6096 47.3002 41.7396C45.6317 41.9653 44.0612 42.6587 42.7702 43.7396C42.2502 44.1796 41.7702 44.6496 41.2402 45.0896C40.7102 45.5296 40.2402 45.9695 39.7302 46.3595C38.9286 46.9783 38.0068 47.4232 37.0237 47.6659C36.0406 47.9087 35.0177 47.944 34.0202 47.7696C33.1602 47.6296 32.2902 47.4796 31.4202 47.3696C29.6109 47.1624 27.7848 47.5749 26.2402 48.5396C24.9388 49.3488 23.7401 50.3124 22.6702 51.4096C21.5726 52.4601 20.5688 53.6044 19.6702 54.8295C19.6037 54.9511 19.5156 55.0596 19.4102 55.1496C19.2805 55.2122 19.1424 55.256 19.0002 55.2796C18.9178 55.1835 18.8726 55.0611 18.8726 54.9346C18.8726 54.808 18.9178 54.6856 19.0002 54.5896C19.2602 54.1996 19.5202 53.8096 19.8102 53.4396C21.1852 51.6696 22.7815 50.0833 24.5602 48.7196C25.7689 47.7567 27.176 47.0737 28.6802 46.7196C29.873 46.4946 31.0974 46.4946 32.2902 46.7196C32.9802 46.8296 33.6702 46.9496 34.3702 47.0396C36.0022 47.2892 37.6667 46.883 39.0002 45.9096C39.5035 45.5379 39.9875 45.1407 40.4502 44.7196C40.9702 44.2796 41.4502 43.8096 41.9702 43.3696C43.7136 41.8492 45.9113 40.9491 48.2202 40.8096L50.4802 40.6395C51.3575 40.5912 52.2077 40.3193 52.9502 39.8496C53.4902 39.4996 54.0102 39.1096 54.5302 38.7396L56.0102 37.6496C56.6602 37.1503 57.4107 36.7979 58.21 36.6166C59.0093 36.4354 59.8384 36.4296 60.6402 36.5996C61.219 36.7094 61.814 36.7014 62.3896 36.576C62.9652 36.4505 63.5096 36.2103 63.9902 35.8696C64.6402 35.4296 65.3202 35.0396 65.9902 34.6196C66.0986 34.5227 66.2326 34.4589 66.3762 34.4359C66.5197 34.4128 66.6669 34.4315 66.8002 34.4896Z" fill="#494949"/>
        <path d="M60.7202 19.7895C60.6013 19.9703 60.4674 20.1408 60.3202 20.2994C59.3769 21.204 58.345 22.0114 57.2402 22.7094C56.0319 23.4293 54.6926 23.9018 53.3002 24.0995C51.4833 24.3871 49.716 24.9291 48.0502 25.7094C46.4175 26.4892 44.6894 27.0507 42.9102 27.3795C42.0402 27.5395 41.1402 27.5994 40.2502 27.6994C39.5286 27.7806 38.8399 28.0458 38.2502 28.4695C37.5102 28.9995 36.8002 29.5494 36.0902 30.1194C35.2002 30.8494 34.3502 31.6194 33.4502 32.3294C32.4727 33.1564 31.3309 33.7665 30.1002 34.1194C28.9387 34.4145 27.7217 34.4145 26.5602 34.1194C25.8602 33.9594 25.1602 33.7894 24.4702 33.5894C23.7196 33.3636 22.9267 33.3156 22.1544 33.4493C21.382 33.5829 20.6513 33.8945 20.0202 34.3594C19.265 34.857 18.5905 35.4675 18.0202 36.1694C17.0202 37.4594 16.0202 38.7795 15.0202 40.0995C14.7202 40.4995 14.4502 40.9295 14.1402 41.3195C13.8302 41.7095 13.8202 41.5795 13.4702 41.3195C13.5268 41.1523 13.6005 40.9914 13.6902 40.8394C14.7602 39.3094 15.8102 37.7694 16.9202 36.2594C17.5748 35.3816 18.3567 34.6064 19.2402 33.9594C20.1179 33.2857 21.1484 32.8392 22.2402 32.6595C22.9733 32.579 23.7149 32.6298 24.4302 32.8094C25.4302 33.0394 26.3702 33.2895 27.3402 33.4995C28.6591 33.7794 30.0347 33.5696 31.2102 32.9095C32.2192 32.3508 33.1619 31.6798 34.0202 30.9095C34.8802 30.1795 35.7302 29.4295 36.6102 28.7195C37.0761 28.3569 37.5637 28.0229 38.0702 27.7195C38.7864 27.2688 39.6053 27.0073 40.4502 26.9594C42.9624 26.8141 45.4218 26.1788 47.6902 25.0894C49.6231 24.2144 51.6646 23.6022 53.7602 23.2694C55.143 23.013 56.4493 22.4454 57.5802 21.6094C58.3002 21.0994 59.0002 20.5494 59.7202 20.0294C59.8677 19.9082 60.033 19.8104 60.2102 19.7394C60.3662 19.719 60.5242 19.719 60.6802 19.7394L60.7202 19.7895Z" fill="#494949"/>
    </g>
    <defs>
        <clipPath id="clip0_78_27313">
            <rect width="88.72" height="87" fill="white" transform="translate(0 0.55957)"/>
        </clipPath>
    </defs>
</svg>
