<svg width="636" height="466" viewBox="0 0 636 466" fill="none" xmlns="http://www.w3.org/2000/svg">
    <path d="M241.679 88.4556L236.688 89.9863L233.338 82.2296L225.765 83.5681L222.309 78.1751L219.578 79.9265L224.199 87.1385L231.376 85.8712L234.865 93.9411L242.373 91.6344L241.679 88.4556Z" fill="#50BFA5"/>
    <path d="M561.691 367.435L556.704 368.965L553.35 361.209L545.778 362.547L542.321 357.154L539.591 358.906L544.215 366.118L551.389 364.85L554.878 372.92L562.386 370.614L561.691 367.435Z" fill="#50BFA5"/>
    <path d="M210.931 459.265C210.931 459.265 184.302 369.019 182.166 349.113C180.03 329.207 194.921 335.372 194.921 335.372C194.921 335.372 182.394 297.44 191.45 288.437C200.507 279.435 208.681 296.215 208.681 296.215C208.681 296.215 211.422 250.167 221.08 250.153C239.065 250.121 238.713 300.37 238.713 300.37C238.713 300.37 243.302 280.699 252.953 286.092C267.478 294.226 246.648 333.649 246.648 333.649C246.648 333.649 265.16 333.649 271.657 342.997C283.306 359.739 210.931 459.265 210.931 459.265Z" fill="#50BFA5"/>
    <path d="M219.635 447.322C219.635 447.322 142.871 434.486 126.174 420.884C109.478 407.282 126.003 401.153 126.003 401.153C126.003 401.153 87.4411 381.385 87.8861 367.944C88.3311 354.502 107.491 361.337 107.491 361.337C107.491 361.337 74.9989 324.287 82.6921 317.25C97.0176 304.146 134.583 342.659 134.583 342.659C134.583 342.659 123.429 324.344 135.177 321.443C152.892 317.075 165.964 362.234 165.964 362.234C165.964 362.234 162.643 344.4 174.864 346.778C196.776 351.039 219.635 447.322 219.635 447.322Z" fill="#50BFA5"/>
    <path d="M174.857 346.778C162.614 344.564 165.957 362.234 165.957 362.234C165.957 362.234 152.885 317.075 135.17 321.443C123.422 324.344 134.576 342.659 134.576 342.659C134.576 342.659 97.0176 304.15 82.6992 317.25L219.404 447.344C216.944 434.917 195.388 350.487 174.857 346.778Z" fill="#3C8F7C"/>
    <path d="M241.476 457.909C241.476 457.909 201.048 416.801 180.692 412.519C160.336 408.236 163.996 422.721 163.996 422.721C163.996 422.721 123.604 387.401 114.241 395.959C104.878 404.516 115.007 412.779 115.007 412.779C115.007 412.779 81.3608 406.82 76.5584 417.858C69.1571 434.82 124.49 444.054 124.49 444.054C124.49 444.054 101.3 445.663 106.69 456.3C114.779 472.34 241.476 457.909 241.476 457.909Z" fill="#355389"/>
    <path d="M76.5479 417.858C81.361 406.823 114.996 412.779 114.996 412.779C114.996 412.779 104.871 404.516 114.231 395.959C123.59 387.401 162.729 417.919 162.729 417.919C162.729 417.919 153.501 400.28 173.861 404.563C194.221 408.845 241.476 457.909 241.476 457.909L76.5479 417.858Z" fill="#466EB6"/>
    <path d="M305.837 33.9348C292.227 36.1704 288.187 54.0295 299.501 62.0175C301.524 63.4707 302.957 65.6036 303.538 68.0263L305.595 76.3312C305.869 77.4352 306.549 78.3957 307.499 79.0216C308.448 79.6475 309.599 79.8931 310.722 79.7094L315.877 78.8586C316.999 78.6753 318.011 78.0754 318.711 77.1786C319.41 76.2818 319.746 75.1542 319.65 74.0209C318.938 65.442 318.052 62.3343 320.839 58.5076C328.995 47.3194 319.44 31.6922 305.837 33.9348Z" fill="#F7CC7F"/>
    <path d="M307.226 70.2405C306.339 62.8932 305.09 55.133 304.673 52.9331C296.873 53.3638 299.839 45.1444 303.438 48.487C304.463 49.4374 304.947 50.7296 305.268 52.1464C307.861 51.9125 310.384 51.1774 312.698 49.9821C312.573 48.1702 312.395 46.7783 312.9 45.6357C313.666 43.8843 315.884 43.4073 316.788 45.1159C316.956 45.4433 317.056 45.8012 317.083 46.1682C317.109 46.5352 317.061 46.9038 316.941 47.2518C316.418 48.7006 314.844 49.6581 313.474 50.4057C313.883 56.2472 314.449 62.135 315.165 67.9302L314.431 68.0228C313.719 62.3272 313.164 56.5284 312.754 50.783C310.458 51.9243 307.971 52.6327 305.417 52.8726C305.951 55.6883 307.13 63.2492 307.963 70.1479L307.226 70.2405ZM300.967 51.2031C301.679 51.947 302.822 52.271 304.527 52.1998C304.235 50.9503 303.815 49.829 302.943 49.0316C300.996 47.2304 299.807 49.95 300.967 51.2031V51.2031ZM313.58 45.9347C313.157 46.9065 313.317 48.1559 313.417 49.5905C314.531 48.9569 315.823 48.1666 316.243 47.0026C316.539 46.1874 316.208 45.0376 315.378 44.824C315.286 44.8027 313.879 45.2512 313.58 45.9347V45.9347Z" fill="#FAE0B2"/>
    <path d="M303.477 67.8199C303.477 67.8875 303.519 67.9552 303.537 68.0264L305.595 76.3312C305.869 77.4352 306.548 78.3957 307.498 79.0216C308.448 79.6476 309.599 79.8931 310.721 79.7094L315.876 78.8586C316.999 78.6753 318.011 78.0754 318.71 77.1786C319.41 76.2818 319.745 75.1542 319.65 74.0209C319.333 70.2049 318.98 67.4711 318.938 65.2783L303.477 67.8199Z" fill="#96D9C9"/>
    <path d="M295.749 27.7303L291.672 20.3047C291.503 19.9613 291.472 19.5656 291.587 19.2003C291.702 18.835 291.954 18.5284 292.29 18.3445C292.626 18.1606 293.021 18.1138 293.39 18.2137C293.76 18.3137 294.077 18.5527 294.275 18.8808L298.344 26.3064C298.533 26.6519 298.576 27.0583 298.466 27.4361C298.355 27.814 298.098 28.1324 297.753 28.3212C297.407 28.51 297.001 28.5538 296.623 28.443C296.245 28.3322 295.927 28.0758 295.738 27.7303H295.749Z" fill="#FAE0B2"/>
    <path d="M286.855 45.714L277.987 44.938C277.595 44.904 277.232 44.7156 276.979 44.4141C276.726 44.1127 276.602 43.723 276.636 43.3308C276.67 42.9385 276.859 42.5758 277.16 42.3224C277.462 42.0691 277.851 41.9459 278.244 41.9798L287.115 42.7559C287.508 42.7903 287.87 42.9792 288.123 43.2809C288.376 43.5827 288.499 43.9726 288.465 44.3649C288.43 44.7571 288.241 45.1197 287.939 45.3727C287.638 45.6257 287.248 45.7485 286.855 45.714V45.714Z" fill="#FAE0B2"/>
    <path d="M278.062 72.8854C277.924 72.7478 277.815 72.5844 277.74 72.4045C277.665 72.2246 277.627 72.0318 277.627 71.837C277.627 71.6423 277.665 71.4494 277.74 71.2695C277.815 71.0897 277.924 70.9263 278.062 70.7887C280.246 68.6302 282.63 66.6838 285.182 64.9757C285.509 64.7741 285.902 64.7072 286.277 64.7891C286.653 64.871 286.982 65.0953 287.195 65.4148C287.409 65.7343 287.49 66.1241 287.422 66.5023C287.354 66.8805 287.142 67.2175 286.83 67.4426C284.433 69.0458 282.193 70.873 280.141 72.8996C279.862 73.1708 279.488 73.3213 279.099 73.3186C278.71 73.316 278.337 73.1603 278.062 72.8854V72.8854Z" fill="#FAE0B2"/>
    <path d="M317.66 27.328C317.47 27.2795 317.292 27.194 317.135 27.0763C316.979 26.9587 316.847 26.8112 316.748 26.6425C316.649 26.4737 316.584 26.287 316.557 26.0931C316.53 25.8992 316.542 25.7019 316.592 25.5125C317.597 21.7448 318.21 17.8834 318.422 13.9897C318.442 13.5965 318.618 13.2276 318.911 12.9643C319.204 12.7009 319.589 12.5646 319.983 12.5854C320.376 12.6062 320.745 12.7823 321.008 13.075C321.272 13.3677 321.408 13.7531 321.387 14.1463C321.165 18.2458 320.52 22.3113 319.461 26.2779C319.359 26.6545 319.113 26.9759 318.776 27.1724C318.439 27.3689 318.038 27.4248 317.66 27.328V27.328Z" fill="#FAE0B2"/>
    <path d="M326.799 38.7298C326.742 38.543 326.723 38.347 326.743 38.1529C326.762 37.9587 326.82 37.7703 326.912 37.5984C327.004 37.4265 327.129 37.2744 327.28 37.1509C327.431 37.0274 327.605 36.935 327.792 36.8787L337.013 34.1022C337.2 34.0458 337.396 34.0269 337.59 34.0464C337.784 34.0659 337.973 34.1235 338.145 34.2159C338.317 34.3083 338.469 34.4336 338.593 34.5848C338.717 34.736 338.809 34.9101 338.866 35.0971C338.922 35.2841 338.941 35.4803 338.921 35.6747C338.902 35.869 338.844 36.0575 338.752 36.2296C338.659 36.4016 338.534 36.5538 338.383 36.6774C338.232 36.801 338.058 36.8936 337.871 36.9499L328.65 39.7301C328.272 39.8429 327.864 39.8008 327.517 39.6132C327.17 39.4257 326.912 39.1079 326.799 38.7298V38.7298Z" fill="#FAE0B2"/>
    <path d="M341.947 63.2634C341.811 63.2629 341.676 63.245 341.544 63.21C338.344 62.3065 335.248 61.0655 332.31 59.5079C332.134 59.4182 331.978 59.2945 331.851 59.1439C331.724 58.9934 331.628 58.8191 331.569 58.6311C331.51 58.4431 331.489 58.2453 331.507 58.0491C331.526 57.8529 331.583 57.6623 331.675 57.4884C331.768 57.3145 331.894 57.1608 332.047 57.0362C332.2 56.9116 332.375 56.8186 332.564 56.7628C332.753 56.7069 332.952 56.6891 333.147 56.7106C333.343 56.7321 333.533 56.7924 333.705 56.8879C336.455 58.3469 339.353 59.508 342.349 60.3515C342.693 60.4496 342.99 60.6686 343.185 60.9682C343.381 61.2678 343.461 61.6278 343.412 61.9821C343.363 62.3364 343.188 62.6611 342.919 62.8965C342.65 63.1319 342.304 63.2622 341.947 63.2634V63.2634Z" fill="#FAE0B2"/>
    <path d="M477.009 128.869L472.356 117.866L460.658 115.463C460.358 115.402 460.082 115.257 459.859 115.046C459.637 114.836 459.478 114.567 459.401 114.271C459.324 113.974 459.331 113.662 459.421 113.37C459.512 113.077 459.683 112.816 459.914 112.615L468.939 104.784L467.607 92.9159C467.573 92.61 467.625 92.3005 467.758 92.0228C467.89 91.745 468.098 91.51 468.358 91.3446C468.618 91.1792 468.919 91.0899 469.226 91.087C469.534 91.0842 469.837 91.1678 470.099 91.3283L480.327 97.4937L491.207 92.5599C491.486 92.4336 491.795 92.3879 492.098 92.428C492.402 92.4681 492.689 92.5925 492.925 92.787C493.162 92.9814 493.34 93.2383 493.438 93.5284C493.536 93.8186 493.551 94.1305 493.482 94.4288L490.78 106.062L498.832 114.883C499.039 115.109 499.178 115.388 499.234 115.689C499.29 115.99 499.26 116.3 499.149 116.585C499.038 116.87 498.85 117.118 498.605 117.302C498.36 117.486 498.069 117.597 497.764 117.624L485.863 118.649L479.964 129.033C479.814 129.303 479.591 129.525 479.321 129.674C479.051 129.823 478.744 129.893 478.436 129.876C478.127 129.859 477.83 129.756 477.578 129.577C477.326 129.399 477.129 129.154 477.009 128.869V128.869Z" fill="#F7CC7F"/>
    <path d="M551.069 91.1254L549.157 98.825L536.426 97.1164L532.24 108.031L522.503 108.312L522.645 113.238L535.668 112.865L539.634 102.52L552.877 104.3L555.757 92.7094L551.069 91.1254Z" fill="#F48C7F"/>
    <path d="M437.633 460.276H213.836C205.292 460.276 198.36 453.089 198.36 444.225V434.678C198.36 425.814 205.288 418.627 213.836 418.627H437.633C427.397 430.232 427.22 447.966 437.223 459.792L437.633 460.276Z" fill="#B75742"/>
    <path d="M434.183 423.401H310.049C301.505 423.401 294.573 430.588 294.573 439.452C294.573 448.319 301.501 455.502 310.049 455.502H434.193C431.348 450.632 429.847 445.094 429.845 439.453C429.843 433.813 431.34 428.273 434.183 423.401V423.401Z" fill="#FAE0B2"/>
    <path d="M359.014 389.701C359.082 389.553 359.111 389.39 359.096 389.228C359.082 389.066 359.025 388.91 358.932 388.777C358.839 388.643 358.712 388.537 358.564 388.468C358.417 388.399 358.254 388.37 358.091 388.384H239.671C230.387 388.384 222.864 395.147 222.864 403.509C222.864 411.86 230.387 418.634 239.671 418.634H358.124C358.286 418.648 358.45 418.618 358.598 418.549C358.746 418.479 358.873 418.372 358.966 418.238C359.059 418.104 359.116 417.947 359.13 417.785C359.144 417.622 359.115 417.458 359.046 417.31V417.31C356.744 413.074 355.536 408.331 355.53 403.51C355.525 398.689 356.722 393.943 359.014 389.701V389.701Z" fill="#86B1F2"/>
    <path d="M358.265 391.2H299.575C288.681 391.2 279.853 396.874 279.853 403.872C279.853 410.871 288.681 416.548 299.575 416.548H358.65C356.666 412.629 355.6 408.31 355.533 403.918C355.467 399.526 356.401 395.177 358.265 391.2V391.2Z" fill="#F7CC7F"/>
    <path d="M343.107 397.208H335.461C333.819 397.208 332.484 397.76 332.484 398.44V398.55H343.104L343.107 397.208Z" fill="#B75742"/>
    <path d="M349.629 400.298C349.629 398.59 347.632 397.208 345.168 397.208H335.36C337.229 397.208 338.742 398.258 338.742 399.551L338.696 432.688L344.114 428.416L349.639 432.688L349.629 400.298Z" fill="#F47458"/>
    <path d="M337.24 387.294H268.336C262.227 387.294 257.275 381.414 257.275 374.163C257.275 366.912 262.227 361.034 268.336 361.034H337.24C331.975 368.314 331.769 378.99 336.749 386.547L337.24 387.294Z" fill="#FAE0B2"/>
    <path d="M257.282 374.163C257.282 366.912 262.352 361.034 268.607 361.034H338.554C338.723 361.021 338.879 360.941 338.99 360.812C339.1 360.683 339.154 360.516 339.141 360.347C339.151 360.181 339.095 360.017 338.985 359.891C338.875 359.765 338.721 359.687 338.554 359.675H227.592C220.689 359.675 215.093 366.16 215.093 374.163C215.093 382.169 220.689 388.654 227.592 388.654H338.554C338.72 388.641 338.875 388.563 338.984 388.437C339.094 388.312 339.15 388.148 339.141 387.982V387.982C339.148 387.898 339.138 387.814 339.113 387.734C339.087 387.654 339.045 387.58 338.991 387.516C338.936 387.452 338.869 387.4 338.794 387.362C338.72 387.324 338.638 387.301 338.554 387.295H268.607C262.352 387.295 257.282 381.414 257.282 374.163Z" fill="#466EB6"/>
    <path d="M325.211 367.485H317.568C315.923 367.485 314.588 368.029 314.588 368.695V368.805H325.211V367.485Z" fill="#184655"/>
    <path d="M331.729 370.518C331.729 368.844 329.732 367.485 327.272 367.485H317.461C319.33 367.485 320.843 368.517 320.843 369.784L320.797 402.281L326.219 398.102L331.74 402.281L331.729 370.518Z" fill="#3C8F7C"/>
    <path d="M447.024 166.762L457.198 164.086L450.302 256.033L438.099 256.439L444.254 170.101C444.309 169.326 444.606 168.586 445.103 167.988C445.599 167.389 446.271 166.96 447.024 166.762V166.762Z" fill="#184655"/>
    <path d="M451.214 258.653C450.977 258.679 450.738 258.679 450.502 258.653C448.483 258.415 446.988 256.407 447.162 254.168L453.926 167.709C454.101 165.47 455.881 163.847 457.903 164.086C459.925 164.324 461.417 166.335 461.242 168.574L454.478 255.033C454.336 256.998 452.94 258.497 451.214 258.653Z" fill="#F7CC7F"/>
    <path d="M357.597 263.259C357.597 263.324 357.597 263.384 357.597 263.448C357.914 266.965 360.64 269.599 363.684 269.325L449.587 261.636C452.631 261.366 454.838 258.294 454.522 254.777C454.522 254.627 454.49 254.481 454.465 254.335L357.597 263.259Z" fill="#F7CC7F"/>
    <path d="M417.415 356.122C411.79 359.24 394.595 353.773 394.595 353.274C394.35 357.973 375.343 403.965 375.343 403.965V418.115C375.343 418.115 414.503 419.98 413.944 416.52C413.385 413.06 411.274 415.31 403.463 408.774C402.751 408.194 391.801 405.648 394.766 399.163C400.761 386.088 413.456 364.288 417.415 356.122Z" fill="#F7A491"/>
    <path d="M374.072 418.627H416.941C418.487 418.471 418.85 417.203 418.301 416.445C417.176 414.872 408.96 411.155 403.438 408.692C393.826 409.813 376.909 406.115 375.361 403.922C371.288 409.386 373.196 418.449 374.072 418.627Z" fill="#3C8F7C"/>
    <path d="M364.653 323.106C364.072 321.365 401.563 305.456 403.24 307.275C406.209 310.479 382.948 370.841 382.948 370.841L409.648 379.004C409.648 379.004 437.416 309.28 436.259 296.525C435.102 283.771 421.189 269.283 391.047 278.556C360.904 287.829 364.653 323.106 364.653 323.106Z" fill="#355389"/>
    <path d="M442.289 364.057C435.959 362.907 427.757 362.579 421.192 362.465C421.965 368.31 425.721 398.287 425.037 400.131C423.307 404.65 420.166 408.491 416.08 411.084C416.08 411.084 445.19 437.348 446.949 434.315C448.708 431.282 445.65 431.688 443.745 421.681C443.578 420.792 439.366 406.823 439.117 399.291C438.611 384.924 442.072 372.038 442.289 364.057Z" fill="#F7A491"/>
    <path d="M432.947 265.986C428.885 263.822 418.351 263.743 406.753 264.495C384.151 265.995 361.833 270.375 340.341 277.53L325.955 282.293L326.001 267.545C326.001 267.545 280.233 259.888 278.653 271.23C276.257 288.316 279.233 322.988 294.481 330.727C341.847 354.769 408.223 292.428 408.465 300.583C408.786 311.536 418.024 352.299 420.384 370.144C426.949 370.258 438.23 370.254 443.125 369.129C444.062 334.169 444.51 272.155 432.947 265.986Z" fill="#466EB6"/>
    <path d="M415.204 411.7L447.931 437.835C449.227 438.697 450.302 437.953 450.367 437.013C450.495 435.08 446.493 427 443.784 421.596C435.632 416.367 424.877 402.729 425.073 400.06C421.612 402.972 414.638 411.013 415.204 411.7Z" fill="#3C8F7C"/>
    <path d="M341.121 123.423C340.024 113.374 338.867 103.289 330.537 95.9239C323.794 89.9649 315.229 88.9539 306.749 92.1435C282.737 101.178 295.108 122.501 264.492 144.002C254.976 150.683 244.491 155.254 237.329 164.249C227.304 176.844 231.088 191.987 240.223 202.1C283.947 250.484 332.758 185.141 336.265 169.454C338.871 157.785 341.829 129.891 341.121 123.423Z" fill="#13375B"/>
    <path d="M332.256 179.916C330.046 175.857 327.626 171.916 325.008 168.108C321.302 161.523 311.733 158.194 311.733 158.194C311.733 158.194 308.529 158.258 304.855 158.44C304.722 158.898 304.477 159.317 304.143 159.657C302.761 160.693 294.844 159.358 289.732 162.829C272.59 177.52 277.332 248.732 278.696 271.223L330.896 271.717C330.896 271.717 324.314 223.305 334.919 210.889C342.295 202.239 337.543 189.691 332.256 179.916Z" fill="#50BFA5"/>
    <path d="M308.714 134.109C308.714 134.109 305.845 154.599 303.84 159.579C301.836 164.559 314.876 175.21 325.695 178.445C336.514 181.681 322.385 167.446 322.847 162.121C323.31 156.795 325.268 131.596 325.268 131.596L308.714 134.109Z" fill="#F7A491"/>
    <path d="M324.705 138.819C325.022 134.65 325.253 131.592 325.253 131.592L308.713 134.109C308.713 134.109 308.297 136.515 307.834 139.919C314.541 143.809 320.568 142.581 324.705 138.819Z" fill="#F47458"/>
    <path d="M313.901 96.6821C309.592 97.8823 305.853 100.581 303.356 104.293C299.334 110.433 296.571 128.517 309.828 136.957C323.086 145.397 333.392 133.458 333.563 121.814C333.734 110.17 331.238 94.6282 313.901 96.6821Z" fill="#F7A491"/>
    <path d="M336.6 118.169C335.468 120.977 333.225 122.721 331.587 122.063C329.95 121.404 329.54 118.592 330.672 115.784C331.804 112.975 334.047 111.231 335.681 111.889C337.315 112.548 337.728 115.36 336.6 118.169Z" fill="#F7A491"/>
    <path d="M315.855 96.3012C315.855 96.3012 307.546 114.94 300.245 116.592C292.943 118.243 293.05 127.627 293.05 127.627C293.05 127.627 293.214 105.966 300.056 101C306.898 96.0342 315.855 96.3012 315.855 96.3012Z" fill="#13375B"/>
    <path d="M303.146 120.468C304.107 123.494 303.228 126.473 301.181 127.125C299.134 127.776 296.695 125.847 295.734 122.821C294.773 119.795 295.652 116.812 297.699 116.161C299.746 115.51 302.185 117.45 303.146 120.468Z" fill="#F7A491"/>
    <path d="M396.514 255.044C393.385 253.912 388.721 253.769 388.8 253.356C389.113 251.683 402.951 257.051 401.082 254.609C400.042 253.249 389.69 248.433 387.169 249.227C384.724 249.999 368.689 254.499 368.689 254.499L324.862 244.229C324.862 244.229 313.801 219.094 312.719 197.497C303.577 198.736 297.35 200.993 289.404 205.403C293.235 226.05 302.551 259.532 312.851 265.815C317.179 268.457 368.906 262.651 368.906 262.651C368.906 262.651 380.298 261.846 382.167 261.131C383.591 260.586 387.219 258.539 389.195 257.977C393.695 256.706 401.705 259.903 401.73 259.02C401.748 258.379 399.715 256.2 396.514 255.044Z" fill="#F7A491"/>
    <path d="M312.989 174.423C312.569 167.781 310.048 161.362 302.978 159.298C298.596 158.016 293.679 159.241 290.162 162.103C285.997 165.506 284.822 170.963 284.854 176.128C284.897 187.875 285.698 200.021 287.841 211.572C295.787 207.162 305.064 204.51 314.21 203.275C314.221 203.203 313.548 183.205 312.989 174.423Z" fill="#96D9C9"/>
    <path d="M177.199 186.964L109.253 174.313C108.597 174.19 108.018 173.812 107.64 173.262C107.263 172.712 107.12 172.035 107.242 171.379L115.754 125.676C115.876 125.021 116.254 124.441 116.804 124.064C117.354 123.687 118.031 123.543 118.687 123.665L186.63 136.316C186.956 136.374 187.267 136.496 187.545 136.675C187.823 136.854 188.062 137.087 188.25 137.359C188.437 137.632 188.568 137.939 188.635 138.263C188.702 138.587 188.704 138.921 188.641 139.246L180.129 184.953C180.007 185.608 179.63 186.188 179.081 186.565C178.531 186.942 177.855 187.086 177.199 186.964V186.964Z" fill="#F7CC7F"/>
    <path d="M144.857 134.707L124.173 130.855C123.848 130.795 123.539 130.671 123.263 130.49C122.986 130.31 122.748 130.077 122.561 129.805C122.375 129.532 122.244 129.226 122.176 128.903C122.108 128.58 122.104 128.247 122.165 127.922L123.457 120.97C123.58 120.315 123.958 119.735 124.508 119.358C125.058 118.981 125.735 118.837 126.391 118.959L147.071 122.811C147.397 122.868 147.708 122.99 147.986 123.169C148.264 123.348 148.503 123.581 148.691 123.854C148.878 124.126 149.009 124.434 149.076 124.758C149.143 125.081 149.146 125.415 149.082 125.74L147.786 132.696C147.665 133.351 147.287 133.931 146.738 134.308C146.189 134.685 145.512 134.829 144.857 134.707V134.707Z" fill="#F7CC7F"/>
    <path d="M180.293 185.216C180.121 185.817 179.731 186.333 179.199 186.662C178.667 186.991 178.032 187.11 177.417 186.996L109.043 174.27C108.429 174.155 107.88 173.816 107.503 173.318C107.125 172.821 106.946 172.201 107 171.579L110.56 130.61C110.59 130.26 110.693 129.921 110.862 129.614C111.032 129.307 111.264 129.038 111.543 128.826C111.822 128.614 112.143 128.462 112.484 128.382C112.826 128.301 113.18 128.292 113.525 128.357L189.499 142.503C189.843 142.567 190.169 142.703 190.457 142.9C190.745 143.097 190.989 143.352 191.173 143.649C191.357 143.946 191.477 144.277 191.526 144.623C191.575 144.969 191.552 145.321 191.457 145.657L180.293 185.216Z" fill="#FAE0B2"/>
    <path d="M491.937 35.5154L480.303 38.6906L477.797 24.5941L481.606 23.9178L483.368 33.8459L490.919 31.7848L491.937 35.5154Z" fill="#50BFA5"/>
    <path d="M121.258 229.14C124.173 228.901 128.648 230.186 130.653 231.546C130.952 231.827 133.259 232.745 135.658 236.718L135.117 237.074C132.589 234.426 130.888 233.831 128.858 233.223C125.519 232.365 122.151 233.005 121.877 233.155L121.258 229.14Z" fill="#355389"/>
    <path d="M135.387 236.903C135.387 236.903 117.633 239.865 119.289 253.734C120.944 267.602 139.673 278.388 156.391 269.813C178.876 258.276 169.994 228.94 153.988 226.673C137.982 224.405 135.387 236.903 135.387 236.903Z" fill="#F47458"/>
    <path d="M142.92 230.798C142.92 230.798 147.548 226.042 157.698 230.368C167.848 234.693 168.581 254.866 159.531 253.694C150.482 252.523 135.683 233.707 142.92 230.798Z" fill="#F48C7F"/>
    <path d="M265.047 46.5648L192.031 72.6077C190.901 73.0107 189.657 72.9484 188.573 72.4343C187.488 71.9203 186.653 70.9967 186.25 69.8667L172.768 32.0909C172.365 30.9608 172.427 29.7169 172.941 28.6328C173.455 27.5487 174.379 26.7131 175.509 26.3099L248.525 0.263421C249.655 -0.138607 250.899 -0.0757811 251.983 0.438115C253.067 0.952012 253.902 1.87498 254.306 3.0044L267.781 40.7838C267.981 41.3429 268.069 41.9359 268.04 42.529C268.011 43.1222 267.866 43.7038 267.612 44.2406C267.358 44.7775 267.001 45.2591 266.561 45.6578C266.12 46.0566 265.606 46.3648 265.047 46.5648V46.5648Z" fill="#86B1F2"/>
    <path d="M216.651 36.8538C217.613 39.5495 217.754 42.4698 217.056 45.2454C216.358 48.0209 214.852 50.5272 212.729 52.4471C210.607 54.3671 207.962 55.6145 205.13 56.0317C202.299 56.4488 199.407 56.0169 196.821 54.7906C194.235 53.5643 192.07 51.5987 190.601 49.1424C189.132 46.686 188.425 43.8492 188.568 40.9908C188.711 38.1323 189.699 35.3806 191.407 33.0836C193.114 30.7867 195.465 29.0475 198.161 28.0862C199.95 27.4476 201.849 27.1677 203.747 27.2627C205.645 27.3577 207.505 27.8256 209.222 28.6398C210.94 29.454 212.479 30.5985 213.754 32.0079C215.029 33.4172 216.013 35.0639 216.651 36.8538Z" fill="white"/>
    <path d="M205.096 34.8283C205.382 35.6242 205.424 36.4868 205.219 37.3069C205.014 38.127 204.57 38.8678 203.943 39.4354C203.316 40.003 202.535 40.3719 201.699 40.4954C200.863 40.619 200.008 40.4915 199.244 40.1293C198.48 39.7671 197.841 39.1863 197.407 38.4606C196.974 37.7348 196.765 36.8967 196.808 36.0524C196.851 35.2081 197.144 34.3955 197.649 33.7175C198.154 33.0396 198.849 32.5267 199.646 32.244C200.711 31.8658 201.884 31.9255 202.905 32.4099C203.927 32.8943 204.715 33.764 205.096 34.8283V34.8283Z" fill="#86B1F2"/>
    <path d="M201.756 43.4243L205.076 42.2404C206.339 41.79 207.729 41.8597 208.94 42.4341C210.152 43.0085 211.085 44.0406 211.536 45.3033L212.05 46.745L199.194 51.33L198.68 49.8882C198.456 49.2619 198.359 48.5976 198.392 47.9335C198.426 47.2693 198.591 46.6183 198.876 46.0179C199.162 45.4174 199.564 44.8792 200.058 44.4342C200.552 43.9891 201.129 43.6459 201.756 43.4243V43.4243Z" fill="#86B1F2"/>
    <path d="M218.453 28.9584C218.019 28.957 217.599 28.8027 217.267 28.5228C216.936 28.2428 216.713 27.8549 216.639 27.4272C216.564 26.9995 216.643 26.5593 216.861 26.1838C217.079 25.8083 217.422 25.5215 217.83 25.3737L249.749 13.9826C249.977 13.9013 250.219 13.8657 250.461 13.8778C250.703 13.89 250.94 13.9496 251.159 14.0534C251.378 14.1572 251.574 14.3031 251.737 14.4827C251.899 14.6624 252.024 14.8722 252.106 15.1004C252.187 15.3285 252.223 15.5704 252.211 15.8123C252.198 16.0542 252.139 16.2913 252.035 16.5101C251.931 16.729 251.785 16.9252 251.606 17.0876C251.426 17.2501 251.216 17.3756 250.988 17.4569L219.072 28.848C218.874 28.9197 218.664 28.957 218.453 28.9584V28.9584Z" fill="white"/>
    <path d="M227.068 36.9143C226.632 36.917 226.208 36.7647 225.873 36.4845C225.539 36.2044 225.314 35.8145 225.24 35.3844C225.165 34.9542 225.246 34.5117 225.468 34.1354C225.689 33.7592 226.037 33.4737 226.449 33.3297L251.369 24.4304C251.83 24.2661 252.337 24.2916 252.779 24.5012C253.221 24.7108 253.561 25.0874 253.726 25.5481C253.89 26.0088 253.864 26.5159 253.655 26.9579C253.445 27.3998 253.068 27.7404 252.608 27.9047L227.688 36.804C227.489 36.8759 227.279 36.9132 227.068 36.9143V36.9143Z" fill="white"/>
    <path d="M378.497 331.514H202.191C199.562 331.515 197.041 332.559 195.183 334.419C193.324 336.278 192.28 338.799 192.28 341.427V349.764C192.28 352.393 193.324 354.914 195.183 356.773C197.041 358.632 199.562 359.677 202.191 359.678H378.497L378.405 359.582C374.777 355.805 372.758 350.766 372.776 345.529C372.793 340.292 374.845 335.267 378.497 331.514V331.514Z" fill="#F47458"/>
    <path d="M375.379 335.682H281.128C278.498 335.682 275.976 336.727 274.117 338.586C272.257 340.445 271.213 342.967 271.213 345.596V345.596C271.213 348.225 272.257 350.747 274.117 352.606C275.976 354.465 278.498 355.51 281.128 355.51H375.375C373.673 352.483 372.778 349.068 372.779 345.595C372.78 342.122 373.675 338.708 375.379 335.682V335.682Z" fill="#FAE0B2"/>
    <path d="M522.795 332.325L509.431 298.81C509.27 298.409 509.191 297.981 509.197 297.549C509.202 297.117 509.293 296.691 509.463 296.294C509.634 295.897 509.881 295.538 510.191 295.237C510.5 294.936 510.866 294.698 511.268 294.539L559.356 275.373C559.757 275.213 560.186 275.133 560.618 275.139C561.05 275.145 561.476 275.235 561.873 275.406C562.27 275.577 562.629 275.824 562.93 276.133C563.231 276.443 563.469 276.809 563.628 277.21L576.993 310.735C577.153 311.137 577.232 311.565 577.227 311.997C577.221 312.429 577.13 312.855 576.96 313.252C576.789 313.649 576.542 314.008 576.232 314.309C575.923 314.61 575.557 314.848 575.156 315.007L527.067 334.173C526.665 334.333 526.236 334.412 525.803 334.405C525.371 334.399 524.944 334.307 524.547 334.136C524.151 333.964 523.791 333.716 523.491 333.405C523.19 333.094 522.954 332.727 522.795 332.325Z" fill="#FAE0B2"/>
    <path d="M568.16 312.939L556.152 282.813C556.106 282.698 556.083 282.576 556.084 282.452C556.085 282.328 556.111 282.206 556.16 282.092C556.208 281.978 556.279 281.875 556.367 281.789C556.456 281.702 556.561 281.634 556.676 281.588V281.588C556.908 281.496 557.168 281.5 557.399 281.598C557.629 281.697 557.81 281.883 557.904 282.115L569.912 312.241C570.004 312.474 570 312.733 569.902 312.963C569.803 313.192 569.617 313.373 569.385 313.466V313.466C569.153 313.558 568.893 313.555 568.664 313.456C568.434 313.357 568.253 313.171 568.16 312.939V312.939Z" fill="#466EB6"/>
    <path d="M562.44 308.97L552.578 284.237C552.486 284.005 552.49 283.745 552.589 283.516C552.687 283.286 552.873 283.105 553.105 283.012V283.012C553.22 282.966 553.343 282.943 553.467 282.945C553.591 282.946 553.713 282.972 553.827 283.021C553.941 283.07 554.044 283.141 554.13 283.23C554.217 283.319 554.285 283.424 554.33 283.539L564.191 308.272C564.28 308.505 564.274 308.763 564.174 308.99C564.074 309.218 563.888 309.397 563.657 309.49V309.49C563.427 309.581 563.169 309.578 562.941 309.48C562.713 309.383 562.533 309.2 562.44 308.97V308.97Z" fill="#466EB6"/>
    <path d="M561.015 315.787L549.004 285.661C548.958 285.546 548.935 285.422 548.937 285.298C548.938 285.174 548.965 285.052 549.014 284.938C549.063 284.824 549.135 284.721 549.224 284.635C549.313 284.549 549.419 284.481 549.534 284.436C549.649 284.39 549.772 284.367 549.896 284.368C550.02 284.37 550.142 284.396 550.256 284.445C550.37 284.494 550.473 284.565 550.559 284.654C550.646 284.743 550.713 284.848 550.759 284.963L562.767 315.089C562.859 315.321 562.856 315.581 562.757 315.81C562.658 316.04 562.472 316.221 562.24 316.314V316.314C562.008 316.406 561.748 316.402 561.519 316.303C561.289 316.205 561.108 316.019 561.015 315.787V315.787Z" fill="#466EB6"/>
    <path d="M554.704 310.337L545.448 287.085C545.355 286.852 545.359 286.593 545.458 286.363C545.556 286.134 545.742 285.953 545.974 285.86V285.86C546.089 285.814 546.212 285.791 546.336 285.792C546.46 285.794 546.583 285.82 546.696 285.869C546.81 285.918 546.913 285.989 546.999 286.078C547.086 286.167 547.154 286.272 547.199 286.387L556.455 309.639C556.548 309.871 556.544 310.131 556.445 310.36C556.346 310.59 556.16 310.771 555.928 310.864V310.864C555.696 310.956 555.437 310.952 555.207 310.854C554.977 310.755 554.796 310.569 554.704 310.337V310.337Z" fill="#466EB6"/>
    <path d="M567.836 279.588L567.594 278.983C567.576 278.93 567.547 278.882 567.509 278.841C567.472 278.8 567.427 278.767 567.377 278.743C567.326 278.72 567.272 278.707 567.216 278.704C567.161 278.702 567.105 278.711 567.053 278.73L562.489 280.549C562.387 280.594 562.306 280.677 562.264 280.781C562.223 280.885 562.224 281.001 562.269 281.104L562.511 281.713C562.55 281.818 562.629 281.902 562.73 281.95C562.831 281.997 562.946 282.003 563.052 281.966L567.616 280.147C567.719 280.101 567.8 280.017 567.841 279.913C567.882 279.808 567.881 279.691 567.836 279.588V279.588Z" fill="#355389"/>
    <path d="M568.872 282.194L568.63 281.588C568.611 281.536 568.583 281.488 568.545 281.447C568.508 281.406 568.463 281.373 568.412 281.349C568.362 281.326 568.307 281.312 568.252 281.31C568.196 281.308 568.141 281.317 568.089 281.336L563.521 283.155C563.419 283.2 563.339 283.284 563.299 283.388C563.258 283.492 563.26 283.608 563.304 283.71L563.546 284.319C563.586 284.423 563.664 284.508 563.765 284.555C563.867 284.603 563.982 284.608 564.087 284.572L568.651 282.753C568.754 282.707 568.835 282.623 568.877 282.518C568.918 282.414 568.916 282.297 568.872 282.194V282.194Z" fill="#355389"/>
    <path d="M569.905 284.789L569.663 284.184C569.644 284.131 569.615 284.083 569.578 284.042C569.541 284.001 569.495 283.968 569.445 283.944C569.395 283.921 569.34 283.907 569.285 283.905C569.229 283.903 569.174 283.912 569.122 283.931L564.558 285.75C564.507 285.772 564.46 285.803 564.422 285.843C564.383 285.883 564.353 285.93 564.332 285.982C564.312 286.033 564.302 286.089 564.304 286.144C564.305 286.2 564.318 286.255 564.341 286.305L564.579 286.914C564.619 287.019 564.698 287.105 564.8 287.152C564.902 287.199 565.018 287.205 565.124 287.167L569.688 285.344C569.739 285.322 569.785 285.29 569.823 285.25C569.862 285.21 569.892 285.163 569.912 285.112C569.932 285.06 569.942 285.005 569.941 284.949C569.94 284.894 569.927 284.839 569.905 284.789V284.789Z" fill="#355389"/>
    <path d="M570.941 287.384L570.699 286.779C570.68 286.726 570.651 286.678 570.614 286.637C570.577 286.596 570.531 286.563 570.481 286.539C570.431 286.516 570.376 286.502 570.321 286.5C570.265 286.498 570.21 286.507 570.158 286.526L565.594 288.345C565.491 288.389 565.41 288.473 565.369 288.577C565.327 288.681 565.329 288.797 565.373 288.9L565.615 289.509C565.634 289.561 565.663 289.609 565.701 289.649C565.738 289.69 565.784 289.723 565.834 289.746C565.884 289.769 565.939 289.782 565.994 289.784C566.049 289.786 566.104 289.777 566.156 289.758L570.72 287.939C570.823 287.894 570.904 287.811 570.945 287.707C570.987 287.603 570.985 287.487 570.941 287.384V287.384Z" fill="#355389"/>
    <path d="M571.973 289.979L571.731 289.374C571.712 289.321 571.684 289.273 571.646 289.232C571.609 289.191 571.564 289.158 571.513 289.134C571.463 289.111 571.408 289.098 571.353 289.095C571.297 289.093 571.242 289.102 571.19 289.121L566.626 290.94C566.523 290.984 566.442 291.068 566.401 291.172C566.36 291.276 566.361 291.392 566.405 291.495L566.647 292.1C566.666 292.153 566.696 292.201 566.733 292.242C566.771 292.283 566.817 292.316 566.867 292.34C566.918 292.363 566.973 292.377 567.028 292.379C567.084 292.381 567.14 292.372 567.192 292.353L571.756 290.534C571.807 290.512 571.853 290.48 571.891 290.44C571.93 290.4 571.96 290.353 571.98 290.302C572 290.25 572.01 290.195 572.009 290.139C572.008 290.084 571.996 290.029 571.973 289.979V289.979Z" fill="#355389"/>
    <path d="M573.009 292.574L572.767 291.969C572.748 291.916 572.72 291.868 572.682 291.827C572.645 291.786 572.6 291.753 572.549 291.729C572.499 291.706 572.444 291.693 572.389 291.69C572.333 291.688 572.278 291.697 572.226 291.716L567.662 293.535C567.559 293.58 567.479 293.663 567.437 293.767C567.396 293.871 567.397 293.987 567.441 294.09L567.684 294.695C567.702 294.748 567.731 294.796 567.768 294.837C567.806 294.878 567.851 294.911 567.901 294.935C567.952 294.958 568.006 294.971 568.062 294.974C568.117 294.976 568.173 294.967 568.225 294.948L572.788 293.129C572.891 293.085 572.972 293.001 573.013 292.897C573.055 292.793 573.053 292.677 573.009 292.574V292.574Z" fill="#355389"/>
    <path d="M574.041 295.169L573.799 294.564C573.781 294.511 573.752 294.463 573.715 294.422C573.677 294.381 573.632 294.348 573.582 294.324C573.531 294.301 573.477 294.288 573.421 294.285C573.366 294.283 573.31 294.292 573.258 294.311L568.694 296.13C568.644 296.152 568.598 296.184 568.559 296.224C568.521 296.264 568.49 296.311 568.47 296.362C568.45 296.414 568.44 296.469 568.442 296.525C568.443 296.58 568.455 296.635 568.477 296.685L568.719 297.29C568.738 297.343 568.767 297.391 568.804 297.432C568.842 297.473 568.887 297.506 568.937 297.53C568.987 297.553 569.042 297.567 569.098 297.569C569.153 297.571 569.208 297.562 569.26 297.543L573.824 295.724C573.875 295.702 573.921 295.67 573.96 295.63C573.998 295.59 574.028 295.543 574.049 295.492C574.069 295.44 574.079 295.385 574.077 295.33C574.076 295.274 574.064 295.22 574.041 295.169V295.169Z" fill="#355389"/>
    <path d="M575.078 297.764L574.836 297.159C574.817 297.106 574.788 297.058 574.751 297.017C574.713 296.976 574.668 296.943 574.618 296.919C574.567 296.896 574.513 296.883 574.458 296.88C574.402 296.878 574.347 296.887 574.294 296.906L569.731 298.725C569.628 298.77 569.547 298.853 569.506 298.957C569.464 299.061 569.466 299.177 569.51 299.28L569.752 299.885C569.771 299.938 569.799 299.986 569.837 300.027C569.874 300.068 569.919 300.101 569.97 300.125C570.02 300.148 570.075 300.162 570.13 300.164C570.186 300.166 570.241 300.157 570.293 300.138L574.857 298.319C574.96 298.275 575.041 298.191 575.082 298.087C575.123 297.983 575.122 297.867 575.078 297.764Z" fill="#355389"/>
    <path d="M576.117 300.359L575.875 299.754C575.856 299.701 575.827 299.653 575.79 299.612C575.752 299.571 575.707 299.538 575.657 299.514C575.607 299.491 575.552 299.478 575.497 299.475C575.441 299.473 575.386 299.482 575.334 299.501L570.77 301.32C570.719 301.342 570.673 301.374 570.634 301.414C570.596 301.454 570.566 301.501 570.545 301.552C570.525 301.604 570.515 301.659 570.517 301.715C570.518 301.77 570.53 301.825 570.553 301.875L570.795 302.481C570.813 302.533 570.842 302.581 570.879 302.622C570.917 302.663 570.962 302.696 571.012 302.72C571.063 302.743 571.117 302.757 571.173 302.759C571.228 302.761 571.284 302.753 571.336 302.733L575.9 300.914C575.951 300.892 575.997 300.86 576.035 300.82C576.074 300.781 576.104 300.733 576.124 300.682C576.144 300.63 576.154 300.575 576.153 300.52C576.151 300.464 576.139 300.41 576.117 300.359V300.359Z" fill="#355389"/>
    <path d="M577.146 302.954L576.904 302.349C576.885 302.296 576.856 302.248 576.819 302.207C576.782 302.166 576.736 302.133 576.686 302.11C576.636 302.086 576.581 302.073 576.526 302.07C576.47 302.068 576.415 302.077 576.363 302.096L571.799 303.915C571.696 303.96 571.615 304.043 571.574 304.147C571.533 304.251 571.534 304.367 571.578 304.47L571.82 305.076C571.839 305.128 571.868 305.176 571.905 305.217C571.943 305.258 571.988 305.291 572.038 305.315C572.088 305.338 572.143 305.352 572.198 305.354C572.254 305.356 572.309 305.348 572.361 305.328L576.925 303.509C577.028 303.465 577.109 303.381 577.15 303.277C577.192 303.173 577.19 303.057 577.146 302.954V302.954Z" fill="#355389"/>
    <path d="M578.178 305.549L577.94 304.94C577.901 304.835 577.821 304.75 577.719 304.703C577.617 304.656 577.5 304.652 577.395 304.691L572.831 306.507C572.729 306.552 572.649 306.637 572.608 306.741C572.567 306.846 572.57 306.962 572.614 307.065L572.856 307.671C572.875 307.723 572.904 307.771 572.941 307.812C572.978 307.853 573.024 307.886 573.074 307.91C573.124 307.933 573.179 307.947 573.234 307.949C573.29 307.951 573.345 307.943 573.397 307.923L577.961 306.104C578.012 306.082 578.058 306.05 578.096 306.01C578.135 305.971 578.165 305.923 578.185 305.872C578.205 305.82 578.215 305.765 578.214 305.71C578.213 305.654 578.201 305.6 578.178 305.549V305.549Z" fill="#355389"/>
    <path d="M579.214 308.144L578.972 307.535C578.933 307.431 578.854 307.346 578.753 307.299C578.652 307.251 578.537 307.246 578.431 307.283L573.867 309.105C573.764 309.15 573.684 309.233 573.642 309.337C573.601 309.441 573.602 309.558 573.647 309.66L573.889 310.266C573.907 310.318 573.936 310.366 573.973 310.407C574.011 310.448 574.056 310.481 574.106 310.505C574.157 310.528 574.211 310.542 574.267 310.544C574.322 310.546 574.378 310.538 574.43 310.518L578.997 308.699C579.099 308.654 579.179 308.57 579.22 308.466C579.261 308.362 579.259 308.247 579.214 308.144V308.144Z" fill="#355389"/>
    <path d="M591.824 305.474L572.738 332.649C572.695 332.71 572.661 332.777 572.639 332.848L570.691 338.818C570.643 338.97 570.645 339.132 570.695 339.283C570.745 339.433 570.842 339.564 570.972 339.656C571.101 339.748 571.256 339.797 571.415 339.796C571.574 339.794 571.728 339.742 571.855 339.648L576.964 335.796C577.025 335.748 577.079 335.692 577.124 335.629L596.259 308.383C596.319 308.3 596.361 308.206 596.383 308.106C596.405 308.006 596.406 307.903 596.386 307.803C596.367 307.703 596.327 307.608 596.269 307.524C596.211 307.44 596.136 307.369 596.049 307.315L592.845 305.261C592.68 305.157 592.482 305.121 592.291 305.161C592.101 305.201 591.933 305.313 591.824 305.474V305.474Z" fill="#B75742"/>
    <path d="M577.103 335.657L577.057 335.725L572.126 339.441L570.784 338.541L572.628 332.881C574.07 333.671 575.8 334.482 577.103 335.657Z" fill="#F7CC7F"/>
    <path d="M398.473 11.2736C401.221 13.4664 406.002 20.5289 412.097 25.4734C415.657 28.371 418.412 27.6341 422.966 28.1859C444.568 30.7952 438.715 35.2128 441.307 35.6613C440.57 37.3557 433.831 51.6623 432.581 54.5528C431.421 57.219 429.416 58.4115 426.511 58.0128C422.044 57.3934 417.537 56.9449 413.136 55.9802C401.862 53.5347 395.589 47.8961 387.504 41.0507C385.368 39.2317 384.834 36.9677 385.945 34.3976C391.111 22.4298 397.903 12.3736 398.473 11.2736Z" fill="#466EB6"/>
    <path d="M443.635 52.8548C443.539 57.5608 443.898 58.5041 441.876 57.7921C440.655 57.3462 439.465 56.8169 438.316 56.2081C437.508 55.7916 437.476 55.2398 438.135 54.5777C439.092 53.613 440.079 52.6768 441.036 51.7299C440.709 50.8133 440.713 49.811 441.047 48.8969C441.381 47.9827 442.025 47.2144 442.866 46.725C443.222 46.5185 442.962 46.9563 445.97 40.0327C436.02 38.8046 429 37.9823 416.864 36.4729C413.676 36.0954 410.671 34.7867 408.224 32.7103C399.556 25.4603 390.893 18.2044 382.235 10.9426C381.061 9.96012 380.911 8.51487 381.844 7.40424C382.556 6.55702 383.503 6.5143 384.521 6.64245C387.291 6.99843 414.45 10.3624 417.209 10.6863C420.754 11.0734 424.102 12.5128 426.821 14.8191C435.337 21.9528 443.864 29.0723 452.403 36.1775C453.575 37.1529 453.891 38.0499 453.471 39.1356C453.019 40.3281 452.047 40.8977 450.545 40.5595C449.477 40.3281 448.993 40.6521 448.623 41.6488C446.949 46.1483 445.775 47.145 446.184 48.7896C446.508 50.1067 444.999 52.303 443.635 52.8548Z" fill="#86B1F2"/>
    <path d="M488.693 372.636L493.642 377.356C505.35 388.521 514.897 401.749 521.805 416.378L522.563 417.983C522.563 417.983 535.525 419.129 537.334 407.411C526.083 394.768 516.518 380.721 508.879 365.619L506.536 360.141L488.693 372.636Z" fill="#466EB6"/>
    <path d="M506.523 360.127C507.16 361.038 503.675 364.562 498.758 367.994C493.842 371.425 489.303 373.515 488.669 372.621C488.035 371.728 491.517 368.143 496.455 364.712C501.393 361.28 505.889 359.212 506.523 360.127Z" fill="#86B1F2"/>
    <path d="M506.543 360.159C506.543 360.159 496.675 368.51 492.609 369.361L493.866 371.069C495.558 370.144 497.196 369.123 498.772 368.011C503.628 364.601 507.081 361.106 506.543 360.159Z" fill="#355389"/>
    <path d="M519.727 384.404C519.745 385.828 519.193 392.057 508.854 394.649C509.533 395.574 510.201 396.509 510.859 397.454C517.406 395.517 520.346 392.161 521.671 389.601C521.877 389.199 522.13 388.654 522.301 388.234C521.425 386.967 520.567 385.69 519.727 384.404Z" fill="#B75742"/>
    <path d="M509.783 392.812L494.567 392.267L498.174 395.329L496.02 399.237L510.42 395.567L509.783 392.812Z" fill="#B75742"/>
    <path d="M511.171 396.35L505.764 405.766L509.566 404.317L511.029 407.307L513.571 397.404L511.171 396.35Z" fill="#B75742"/>
    <path d="M513.233 398.903C512.247 398.999 511.255 398.799 510.384 398.33C509.512 397.86 508.8 397.141 508.339 396.265C507.877 395.389 507.687 394.395 507.793 393.411C507.899 392.426 508.295 391.495 508.932 390.737C509.569 389.979 510.418 389.428 511.369 389.154C512.321 388.88 513.332 388.895 514.275 389.199C515.217 389.502 516.048 390.079 516.662 390.856C517.275 391.634 517.643 392.576 517.718 393.563C517.775 394.208 517.704 394.858 517.509 395.476C517.314 396.094 516.999 396.667 516.583 397.163C516.166 397.659 515.656 398.068 515.081 398.366C514.506 398.665 513.878 398.847 513.233 398.903V398.903Z" fill="#F47458"/>
    <path d="M545.53 185.255L513.49 156.667C511.407 154.809 512.272 150.971 515.145 149.362L540.717 134.881C542.354 133.956 544.198 134.041 545.384 135.102L577.424 163.69C579.507 165.549 578.642 169.386 575.769 170.995L550.197 185.472C548.559 186.405 546.715 186.323 545.53 185.255Z" fill="#9BC1F9"/>
    <path d="M544.009 162.519L541.339 140.552C541.31 140.113 541.429 139.676 541.676 139.312C541.924 138.948 542.287 138.678 542.706 138.544C542.889 138.471 543.085 138.441 543.281 138.457C543.476 138.472 543.666 138.533 543.834 138.633C544.003 138.734 544.146 138.872 544.252 139.037C544.358 139.202 544.425 139.389 544.447 139.584L546.904 159.796L571.201 165.67C571.991 165.862 572.358 166.716 572.016 167.578C571.674 168.439 570.752 168.984 569.958 168.791L544.009 162.519Z" fill="white"/>
    <path d="M125.615 61.9072L128.926 68.4571L136.409 68.215L139.602 75.8221L147.491 73.1061L151.482 81.5497L159.054 79.9443L164.223 87.4411L161.386 89.3954L157.523 83.7924L149.531 85.4868L145.693 77.3706L137.673 80.1294L134.148 71.7356L126.843 71.9741L123.774 65.9012L119.008 67.0616L118.192 63.7119L125.615 61.9072Z" fill="#F7CC7F"/>
    <path d="M526.312 229.492L533.115 232.254L538.598 227.157L545.999 230.795L550.164 223.565L558.719 227.31L563.375 221.127L572.197 223.383L571.343 226.719L564.746 225.032L559.833 231.56L551.61 227.958L547.377 235.312L539.207 231.297L533.852 236.273L527.548 233.714L524.717 237.715L521.901 235.729L526.312 229.492Z" fill="#50BFA5"/>
</svg>
