<svg width="577" height="513" viewBox="0 0 577 513" fill="none" xmlns="http://www.w3.org/2000/svg">
    <g clip-path="url(#clip0_78_21358)">
        <path d="M320.126 109.746C318.397 109.671 316.748 109 315.457 107.849C314.167 106.697 313.314 105.134 313.044 103.426C312.774 101.718 313.103 99.969 313.975 98.4755C314.848 96.982 316.21 95.8359 317.831 95.2315L354.609 83.4013C355.668 83.0597 356.785 82.93 357.895 83.0198C359.005 83.1096 360.086 83.417 361.077 83.9245C362.068 84.432 362.949 85.1296 363.67 85.9776C364.392 86.8256 364.939 87.8072 365.28 88.8666C365.622 89.9259 365.752 91.0422 365.662 92.1516C365.572 93.2611 365.265 94.342 364.757 95.3326C364.249 96.3233 363.552 97.2042 362.703 97.9252C361.855 98.6463 360.873 99.1932 359.813 99.5348L336.955 106.897C336.828 106.939 336.694 106.955 336.56 106.944C336.427 106.933 336.297 106.896 336.179 106.835C336.06 106.773 335.954 106.689 335.869 106.586C335.783 106.484 335.719 106.365 335.68 106.237C335.638 106.112 335.621 105.98 335.631 105.849C335.641 105.717 335.677 105.589 335.737 105.472C335.797 105.354 335.88 105.25 335.981 105.165C336.082 105.081 336.199 105.017 336.325 104.978L359.183 97.6156C360.812 97.0861 362.165 95.9351 362.949 94.4131C363.732 92.8911 363.883 91.1214 363.368 89.4888C362.832 87.8661 361.679 86.5194 360.158 85.7394C358.637 84.9595 356.87 84.809 355.239 85.3205L318.446 97.1508C317.077 97.5922 315.94 98.5589 315.285 99.8384C314.63 101.118 314.509 102.605 314.951 103.973C315.393 105.341 316.36 106.478 317.639 107.133C318.919 107.788 320.407 107.908 321.776 107.467L348.774 98.7701C349.353 98.6198 349.895 98.3529 350.367 97.9858C350.839 97.6187 351.231 97.1591 351.52 96.6352C351.808 96.1113 351.986 95.5341 352.043 94.9389C352.101 94.3437 352.036 93.7431 351.853 93.1739C351.67 92.6046 351.373 92.0787 350.979 91.6283C350.586 91.178 350.105 90.8126 349.565 90.5547C349.025 90.2967 348.439 90.1516 347.841 90.1282C347.243 90.1047 346.647 90.2035 346.089 90.4185L329.23 95.8463C328.976 95.9278 328.699 95.9049 328.461 95.7826C328.224 95.6603 328.044 95.4486 327.963 95.1941C327.881 94.9396 327.904 94.6631 328.026 94.4255C328.149 94.1879 328.361 94.0086 328.615 93.9271L345.474 88.4992C346.279 88.2251 347.131 88.1141 347.979 88.1726C348.828 88.2311 349.656 88.458 350.416 88.84C351.176 89.222 351.852 89.7514 352.405 90.3975C352.958 91.0436 353.377 91.7933 353.637 92.6028C353.897 93.4124 353.993 94.2656 353.92 95.1127C353.846 95.9598 353.605 96.7838 353.209 97.5366C352.814 98.2893 352.272 98.9558 351.616 99.4972C350.96 100.038 350.203 100.444 349.389 100.689L322.316 109.386C321.609 109.621 320.87 109.743 320.126 109.746Z" fill="#C2C3C8"/>
        <path d="M81.8953 450.11C81.8953 450.11 68.5461 434.096 62.7714 426.314C48.6873 407.347 34.5281 387.48 29.3984 364.419C47.2774 376.684 63.8963 392.188 71.9809 412.31C76.8556 424.44 81.8953 450.11 81.8953 450.11Z" fill="#70A63B"/>
        <path d="M140.976 489.829C112.718 482.916 91.8543 462.54 75.3553 439.614C74.6504 438.639 73.0305 439.614 73.7354 440.558C90.4894 463.904 111.743 484.626 140.466 491.658C140.585 491.69 140.708 491.699 140.83 491.684C140.951 491.669 141.069 491.63 141.175 491.569C141.282 491.509 141.375 491.428 141.451 491.331C141.526 491.234 141.581 491.124 141.614 491.006C141.646 490.887 141.655 490.764 141.64 490.643C141.625 490.521 141.586 490.403 141.525 490.297C141.465 490.19 141.384 490.097 141.287 490.022C141.19 489.946 141.08 489.891 140.961 489.859L140.976 489.829Z" fill="#70A63B"/>
        <path d="M86.8445 455.957C83.0198 449.6 75.4452 444.952 68.3957 442.642C61.3461 440.333 53.9065 439.434 46.692 437.679C38.0673 435.735 29.7711 432.548 22.0635 428.218C35.2177 449.51 62.366 461.13 86.8445 455.957Z" fill="#70A63B"/>
        <path d="M121.163 483.636C121.163 483.636 103.659 482.392 94.3293 480.352C87.2613 478.968 80.3658 476.817 73.7655 473.935C67.1415 471.044 61.3009 466.619 56.7266 461.025C65.816 464.024 75.6704 463.394 84.9698 465.598C96.6691 468.357 121.163 483.636 121.163 483.636Z" fill="#70A63B"/>
        <path d="M126.562 486.47C126.562 486.47 120.202 470.127 115.508 461.82C112.092 455.492 107.998 449.555 103.298 444.112C98.5641 438.613 92.5832 434.326 85.8545 431.607C91.3442 439.419 93.729 449 98.5737 457.232C104.738 467.593 126.562 486.47 126.562 486.47Z" fill="#70A63B"/>
        <path d="M164.795 248.47C167 237.105 163.07 223.85 157.296 213.819C151.521 203.788 143.871 194.987 137.362 185.421C129.4 174.184 123.115 161.85 118.703 148.805C111.743 187.16 131.047 228.918 164.795 248.47Z" fill="#70A63B"/>
        <path d="M385.492 156.722C385.492 156.722 392.526 125.01 394.971 110.106C400.971 73.7753 406.37 36.1553 397.011 0.55957C381.007 30.2927 369.008 63.6543 372.217 97.2709C374.137 117.468 385.492 156.722 385.492 156.722Z" fill="#70A63B"/>
        <path d="M337.749 273.375C339.909 260.241 343.749 247.886 351.863 237.195C358.058 229.008 365.078 221.736 369.862 212.575C376.717 199.575 379.942 185.031 382.282 170.591C384.777 156.444 386.474 142.167 387.366 127.829C387.366 126.629 385.551 126.629 385.491 127.829C384.587 142.887 382.779 157.879 380.077 172.721C377.572 187.58 373.882 202.709 365.993 215.663C361.043 223.82 354.248 230.507 348.759 238.244C341.439 248.56 337.974 260.48 335.949 272.836C335.754 274.02 337.554 274.53 337.749 273.345V273.375Z" fill="#70A63B"/>
        <path d="M383.811 159.061C383.451 147.501 389.451 135.071 396.741 126.074C404.03 117.078 413.03 109.581 420.979 101.244C430.642 91.4265 438.823 80.2536 445.263 68.0776C445.998 107.047 420.334 145.177 383.811 159.061Z" fill="#70A63B"/>
        <path d="M362.229 224.285C362.229 224.285 384.097 207.882 394.597 197.296C402.688 189.515 409.91 180.877 416.135 171.536C422.368 162.153 426.276 151.421 427.535 140.229C418.115 151.744 404.736 159.346 394.417 170.067C381.412 183.606 362.229 224.285 362.229 224.285Z" fill="#70A63B"/>
        <path d="M366.008 218.767C366.008 218.767 373.912 191.628 374.257 176.784C374.527 165.569 369.008 143.902 351.384 122.581C352.479 137.425 352.089 142.493 351.999 157.367C351.879 176.079 366.008 218.767 366.008 218.767Z" fill="#70A63B"/>
        <path d="M192.963 150.724C192.963 150.724 181.114 134.561 176.029 126.734C163.64 107.707 151.221 87.7497 147.666 65.3486C164.165 78.1835 179.164 94.0471 185.689 113.839C189.618 125.729 192.963 150.724 192.963 150.724Z" fill="#A1BC31"/>
        <path d="M393.966 413.494C395.856 402.084 404.165 391.003 413.075 383.626C421.984 376.249 432.228 370.671 441.663 363.969C453.051 356.223 463.243 346.853 471.916 336.155C465.077 374.555 432.408 406.942 393.966 413.494Z" fill="#70A63B"/>
        <path d="M363.998 505.752C365.498 496.981 371.843 488.479 378.682 482.781C385.522 477.084 393.411 472.825 400.671 467.682C409.422 461.721 417.258 454.518 423.934 446.301C418.67 475.809 393.561 500.714 363.998 505.752Z" fill="#A1BC31"/>
        <path d="M142.851 434.546C142.851 434.546 134.797 416.193 131.527 407.452C123.563 386.19 115.763 364.059 117.158 341.373C130.417 357.462 141.667 376.219 143.766 396.956C144.951 409.416 142.851 434.546 142.851 434.546Z" fill="#A1BC31"/>
        <path d="M448.143 250.525C448.143 250.525 469.141 209.126 479.941 190.444C506.279 144.922 534.402 98.4554 577 67.6128C567.73 114.964 550.721 162.66 516.703 196.891C496.26 217.448 448.143 250.525 448.143 250.525Z" fill="#A1BC31"/>
        <path d="M392.391 394.632C392.586 330.008 427.039 273.255 468.602 226.264C469.397 225.35 468.077 224.03 467.267 224.93C425.375 272.296 390.772 329.513 390.517 394.632C390.546 394.86 390.657 395.07 390.829 395.222C391.002 395.374 391.224 395.458 391.454 395.458C391.684 395.458 391.906 395.374 392.079 395.222C392.251 395.07 392.363 394.86 392.391 394.632Z" fill="#A1BC31"/>
        <path d="M439.653 260.3C451.518 248.785 457.757 230.043 459.152 213.579C460.547 197.116 458.792 180.592 458.972 164.009C459.197 144.217 461.177 124.77 467.027 105.862C427.549 145.132 416.06 209.831 439.653 260.3Z" fill="#A1BC31"/>
        <path d="M396.951 348.675C396.951 348.675 390.816 310.111 390.516 288.849C390.306 272.836 390.801 256.717 394.041 241.033C397.281 225.35 403.386 210.026 413.45 197.551C411.68 218.737 417.86 239.834 417.8 261.08C417.71 287.86 396.951 348.675 396.951 348.675Z" fill="#A1BC31"/>
        <path d="M379.192 325.315C379.192 325.315 417.035 315.614 436.669 307.442C451.458 301.279 466.067 294.427 479.176 285.221C492.286 276.014 503.925 264.319 511.349 250.135C492.616 260.181 470.852 262.895 451.353 271.396C426.769 282.177 379.192 325.315 379.192 325.315Z" fill="#A1BC31"/>
        <path d="M75.8653 334.656C75.8653 334.656 62.8011 304.908 57.5064 290.768C44.5922 256.282 32.008 220.432 34.2128 183.696C55.7065 209.756 73.9454 240.149 77.3352 273.765C79.3601 293.872 75.8653 334.656 75.8653 334.656Z" fill="#A1BC31"/>
        <path d="M148.566 443.048C144.171 431.322 138.442 420.317 129.712 411.245C122.333 403.583 113.633 397.376 106.629 389.354C95.8894 377.074 89.0498 362.08 83.4101 346.936C78.2465 333.603 73.83 319.992 70.181 306.167C70.1153 305.929 69.9576 305.726 69.7424 305.604C69.5272 305.481 69.2722 305.449 69.0335 305.515C68.7949 305.581 68.592 305.738 68.4697 305.954C68.3473 306.169 68.3154 306.424 68.3811 306.662C72.0198 320.473 76.4315 334.069 81.5953 347.386C86.725 361.165 92.7846 374.765 101.859 386.445C108.399 394.872 116.588 401.439 124.358 408.591C134.857 418.367 141.727 430.108 146.751 443.512C147.171 444.622 148.986 444.142 148.566 443.003V443.048Z" fill="#A1BC31"/>
        <path d="M77.9653 336.545C76.0754 325.135 67.7659 314.054 58.8564 306.677C49.947 299.3 39.7026 293.722 30.2532 287.02C18.8726 279.27 8.68132 269.906 0 259.221C6.85458 297.606 39.5076 329.993 77.9653 336.545Z" fill="#A1BC31"/>
        <path d="M111.803 396.326C111.803 396.326 87.1595 384.496 74.8152 376.189C65.3664 370.131 56.6054 363.062 48.6868 355.108C40.7519 347.116 34.8341 337.35 31.4229 326.619C42.8972 336.095 57.5063 340.938 69.7155 349.455C85.0746 360.146 111.803 396.326 111.803 396.326Z" fill="#A1BC31"/>
        <path d="M107.034 391.633C107.034 391.633 93.9998 366.533 90.76 352.019C88.3301 341.073 89.53 318.732 102.684 294.397C104.484 309.166 105.849 314.069 108.834 328.658C112.584 347.041 107.034 391.633 107.034 391.633Z" fill="#A1BC31"/>
        <path d="M381.127 270.182H374.197V213.04H381.127C381.127 213.04 392.556 234.526 392.556 241.663C392.556 248.8 381.127 270.182 381.127 270.182Z" fill="#332F2E"/>
        <path d="M380.272 275.384C379.57 275.387 378.874 275.248 378.227 274.975C377.58 274.701 376.995 274.3 376.507 273.795C376.027 273.301 375.648 272.717 375.393 272.076C375.138 271.436 375.012 270.752 375.022 270.062C375.032 269.373 375.177 268.693 375.45 268.06C375.723 267.427 376.118 266.854 376.613 266.373C383.293 259.878 387.125 251.001 387.269 241.686C387.412 232.371 383.855 223.38 377.377 216.683C376.835 216.205 376.397 215.62 376.092 214.965C375.786 214.31 375.619 213.599 375.601 212.877C375.583 212.154 375.714 211.436 375.987 210.766C376.26 210.097 376.668 209.491 377.186 208.987C377.704 208.483 378.32 208.091 378.997 207.836C379.674 207.581 380.395 207.468 381.118 207.505C381.84 207.542 382.546 207.728 383.193 208.051C383.84 208.373 384.413 208.826 384.877 209.381C393.278 218.071 397.892 229.735 397.709 241.819C397.527 253.903 392.562 265.422 383.902 273.855C382.938 274.819 381.636 275.368 380.272 275.384Z" fill="#9BCBEE"/>
        <path d="M377.872 213.04H127.522V270.302H377.872V213.04Z" fill="#F1E3B4"/>
        <path d="M381.142 218.228H118.973C117.643 218.156 116.391 217.578 115.475 216.611C114.559 215.645 114.048 214.364 114.048 213.032C114.048 211.701 114.559 210.42 115.475 209.453C116.391 208.487 117.643 207.908 118.973 207.837H381.142C382.472 207.908 383.725 208.487 384.641 209.453C385.557 210.42 386.068 211.701 386.068 213.032C386.068 214.364 385.557 215.645 384.641 216.611C383.725 217.578 382.472 218.156 381.142 218.228Z" fill="#9BCBEE"/>
        <path d="M380.272 275.489H118.973C117.643 275.418 116.391 274.839 115.475 273.873C114.559 272.907 114.048 271.626 114.048 270.294C114.048 268.962 114.559 267.682 115.475 266.715C116.391 265.749 117.643 265.17 118.973 265.099H380.272C381.602 265.17 382.855 265.749 383.771 266.715C384.687 267.682 385.198 268.962 385.198 270.294C385.198 271.626 384.687 272.907 383.771 273.873C382.855 274.839 381.602 275.418 380.272 275.489Z" fill="#9BCBEE"/>
        <path d="M336.849 227.299H135.352C135.153 227.299 134.962 227.22 134.821 227.079C134.681 226.939 134.602 226.748 134.602 226.549C134.602 226.35 134.681 226.16 134.821 226.019C134.962 225.878 135.153 225.799 135.352 225.799H336.849C337.048 225.799 337.239 225.878 337.38 226.019C337.52 226.16 337.599 226.35 337.599 226.549C337.599 226.748 337.52 226.939 337.38 227.079C337.239 227.22 337.048 227.299 336.849 227.299Z" fill="#D9A957"/>
        <path d="M340.839 236.58H139.356C139.157 236.58 138.967 236.501 138.826 236.36C138.685 236.22 138.606 236.029 138.606 235.83C138.606 235.631 138.685 235.441 138.826 235.3C138.967 235.16 139.157 235.081 139.356 235.081H340.839C341.038 235.081 341.229 235.16 341.369 235.3C341.51 235.441 341.589 235.631 341.589 235.83C341.589 236.029 341.51 236.22 341.369 236.36C341.229 236.501 341.038 236.58 340.839 236.58Z" fill="#D9A957"/>
        <path d="M369.338 246.266H167.75C167.551 246.266 167.36 246.187 167.22 246.047C167.079 245.906 167 245.715 167 245.517C167 245.318 167.079 245.127 167.22 244.986C167.36 244.846 167.551 244.767 167.75 244.767H369.338C369.537 244.767 369.727 244.846 369.868 244.986C370.009 245.127 370.088 245.318 370.088 245.517C370.088 245.715 370.009 245.906 369.868 246.047C369.727 246.187 369.537 246.266 369.338 246.266Z" fill="#D9A957"/>
        <path d="M130.402 446.301H137.332V503.413H130.402C130.402 503.413 118.973 481.912 118.973 474.775C118.973 467.638 130.402 446.301 130.402 446.301Z" fill="#332F2E"/>
        <path d="M383.991 446.151H133.642V503.413H383.991V446.151Z" fill="#F1E3B4"/>
        <path d="M130.387 508.661C129.684 508.661 128.988 508.519 128.341 508.243C127.694 507.968 127.109 507.564 126.622 507.057C118.217 498.368 113.601 486.703 113.784 474.618C113.966 462.533 118.934 451.013 127.597 442.583C128.078 442.052 128.663 441.625 129.315 441.328C129.968 441.032 130.674 440.872 131.39 440.859C132.107 440.845 132.818 440.979 133.481 441.251C134.144 441.523 134.744 441.927 135.245 442.44C135.745 442.953 136.136 443.562 136.392 444.232C136.648 444.901 136.764 445.615 136.733 446.331C136.702 447.047 136.525 447.748 136.213 448.393C135.9 449.038 135.459 449.612 134.917 450.08C128.232 456.572 124.398 465.451 124.254 474.767C124.111 484.082 127.67 493.075 134.152 499.77C134.871 500.509 135.357 501.445 135.547 502.459C135.738 503.473 135.625 504.521 135.224 505.471C134.822 506.421 134.149 507.232 133.289 507.802C132.428 508.372 131.419 508.676 130.387 508.676V508.661Z" fill="#9BCBEE"/>
        <path d="M392.556 508.586H130.387C129.057 508.515 127.805 507.936 126.889 506.97C125.973 506.003 125.462 504.722 125.462 503.391C125.462 502.059 125.973 500.778 126.889 499.812C127.805 498.845 129.057 498.267 130.387 498.195H392.556C393.886 498.267 395.139 498.845 396.055 499.812C396.971 500.778 397.482 502.059 397.482 503.391C397.482 504.722 396.971 506.003 396.055 506.97C395.139 507.936 393.886 508.515 392.556 508.586Z" fill="#9BCBEE"/>
        <path d="M392.556 451.339H131.257C129.881 451.339 128.561 450.792 127.587 449.82C126.614 448.847 126.067 447.527 126.067 446.151C126.067 444.775 126.614 443.456 127.587 442.483C128.561 441.51 129.881 440.963 131.257 440.963H392.556C393.933 440.963 395.253 441.51 396.226 442.483C397.199 443.456 397.746 444.775 397.746 446.151C397.746 447.527 397.199 448.847 396.226 449.82C395.253 450.792 393.933 451.339 392.556 451.339Z" fill="#9BCBEE"/>
        <path d="M376.207 490.593H174.68C174.481 490.593 174.29 490.514 174.149 490.374C174.009 490.233 173.93 490.043 173.93 489.844C173.93 489.645 174.009 489.454 174.149 489.314C174.29 489.173 174.481 489.094 174.68 489.094H376.207C376.406 489.094 376.597 489.173 376.738 489.314C376.878 489.454 376.957 489.645 376.957 489.844C376.957 490.043 376.878 490.233 376.738 490.374C376.597 490.514 376.406 490.593 376.207 490.593Z" fill="#D9A957"/>
        <path d="M359.978 472.915H158.436C158.238 472.912 158.049 472.831 157.909 472.692C157.77 472.552 157.689 472.363 157.686 472.166C157.686 471.967 157.765 471.776 157.905 471.636C158.046 471.495 158.237 471.416 158.436 471.416H359.978C360.177 471.416 360.368 471.495 360.509 471.636C360.649 471.776 360.728 471.967 360.728 472.166C360.724 472.363 360.644 472.552 360.504 472.692C360.365 472.831 360.176 472.912 359.978 472.915Z" fill="#D9A957"/>
        <path d="M343.839 464.174H142.236C142.037 464.174 141.847 464.095 141.706 463.954C141.565 463.814 141.486 463.623 141.486 463.424C141.49 463.227 141.57 463.038 141.71 462.898C141.85 462.759 142.039 462.678 142.236 462.675H343.839C344.037 462.678 344.225 462.759 344.365 462.898C344.505 463.038 344.585 463.227 344.589 463.424C344.589 463.623 344.51 463.814 344.369 463.954C344.229 464.095 344.038 464.174 343.839 464.174Z" fill="#D9A957"/>
        <path d="M416.84 441.113H151.851C149.663 441.113 147.565 440.244 146.018 438.698C144.471 437.151 143.602 435.054 143.602 432.867C143.602 430.679 144.471 428.582 146.018 427.035C147.565 425.489 149.663 424.62 151.851 424.62H416.84C419.028 424.62 421.126 425.489 422.673 427.035C424.22 428.582 425.089 430.679 425.089 432.867C425.089 435.054 424.22 437.151 422.673 438.698C421.126 440.244 419.028 441.113 416.84 441.113Z" fill="#BE2D86"/>
        <path d="M439.128 352.034H430.459V280.512H439.128C439.128 280.512 453.438 307.427 453.438 316.363C453.438 325.3 439.128 352.034 439.128 352.034Z" fill="#332F2E"/>
        <path d="M438.049 357.282C437.008 357.276 435.993 356.961 435.132 356.378C434.271 355.794 433.603 354.968 433.212 354.004C432.821 353.04 432.726 351.982 432.938 350.964C433.151 349.945 433.661 349.013 434.404 348.285C438.678 344.142 442.094 339.198 444.456 333.734C446.818 328.271 448.081 322.396 448.171 316.445C448.262 310.494 447.179 304.583 444.984 299.051C442.789 293.518 439.525 288.472 435.379 284.201C434.53 283.186 434.096 281.888 434.164 280.567C434.232 279.246 434.796 277.999 435.744 277.076C436.692 276.153 437.954 275.622 439.276 275.59C440.599 275.557 441.886 276.024 442.878 276.899C447.984 282.161 452.003 288.376 454.705 295.191C457.407 302.005 458.74 309.285 458.627 316.615C458.514 323.944 456.958 331.18 454.047 337.908C451.137 344.636 446.929 350.725 441.663 355.827C440.691 356.759 439.396 357.28 438.049 357.282Z" fill="#BE2D86"/>
        <path d="M435.484 280.527H121.553V352.229H435.484V280.527Z" fill="#F1E3B4"/>
        <path d="M439.143 285.76H110.858C109.466 285.76 108.131 285.208 107.146 284.223C106.161 283.239 105.608 281.904 105.608 280.513C105.608 279.121 106.161 277.786 107.146 276.802C108.131 275.818 109.466 275.265 110.858 275.265H439.143C440.536 275.265 441.871 275.818 442.855 276.802C443.84 277.786 444.393 279.121 444.393 280.513C444.393 281.904 443.84 283.239 442.855 284.223C441.871 285.208 440.536 285.76 439.143 285.76Z" fill="#BE2D86"/>
        <path d="M438.048 357.462H110.858C109.466 357.462 108.131 356.909 107.146 355.925C106.161 354.94 105.608 353.606 105.608 352.214C105.608 350.822 106.161 349.487 107.146 348.503C108.131 347.519 109.466 346.966 110.858 346.966H438.048C439.441 346.966 440.776 347.519 441.76 348.503C442.745 349.487 443.298 350.822 443.298 352.214C443.298 353.606 442.745 354.94 441.76 355.925C440.776 356.909 439.441 357.462 438.048 357.462Z" fill="#BE2D86"/>
        <path d="M383.692 298.175H131.317C131.118 298.175 130.928 298.096 130.787 297.956C130.646 297.815 130.567 297.625 130.567 297.426C130.571 297.228 130.651 297.04 130.791 296.9C130.931 296.76 131.12 296.68 131.317 296.676H383.692C383.89 296.68 384.078 296.76 384.218 296.9C384.358 297.04 384.438 297.228 384.442 297.426C384.442 297.625 384.363 297.815 384.222 297.956C384.082 298.096 383.891 298.175 383.692 298.175Z" fill="#D9A957"/>
        <path d="M396.681 327.909H144.352C144.153 327.909 143.962 327.83 143.821 327.689C143.681 327.548 143.602 327.358 143.602 327.159C143.602 326.96 143.681 326.769 143.821 326.629C143.962 326.488 144.153 326.409 144.352 326.409H396.681C396.88 326.409 397.071 326.488 397.211 326.629C397.352 326.769 397.431 326.96 397.431 327.159C397.431 327.358 397.352 327.548 397.211 327.689C397.071 327.83 396.88 327.909 396.681 327.909Z" fill="#D9A957"/>
        <path d="M393.051 337.46H140.691C140.492 337.46 140.302 337.381 140.161 337.24C140.02 337.099 139.941 336.909 139.941 336.71C139.941 336.511 140.02 336.32 140.161 336.18C140.302 336.039 140.492 335.96 140.691 335.96H393.051C393.25 335.96 393.441 336.039 393.581 336.18C393.722 336.32 393.801 336.511 393.801 336.71C393.801 336.909 393.722 337.099 393.581 337.24C393.441 337.381 393.25 337.46 393.051 337.46Z" fill="#D9A957"/>
        <path d="M405.426 419.507H398.496V362.41H405.426C405.426 362.41 416.84 383.896 416.84 391.033C416.84 398.17 405.426 419.507 405.426 419.507Z" fill="#332F2E"/>
        <path d="M404.57 424.755C403.529 424.752 402.512 424.439 401.648 423.857C400.785 423.274 400.114 422.448 399.722 421.484C399.329 420.519 399.233 419.46 399.445 418.44C399.656 417.421 400.167 416.487 400.911 415.758C407.591 409.264 411.424 400.386 411.567 391.071C411.71 381.757 408.153 372.765 401.676 366.068C400.827 365.053 400.393 363.755 400.461 362.434C400.529 361.113 401.093 359.867 402.041 358.944C402.989 358.021 404.25 357.49 405.573 357.457C406.896 357.424 408.183 357.891 409.175 358.766C417.574 367.459 422.186 379.124 422 391.208C421.815 403.292 416.847 414.81 408.185 423.24C407.223 424.195 405.926 424.738 404.57 424.755Z" fill="#E8BB37"/>
        <path d="M402.155 362.41H151.806V419.672H402.155V362.41Z" fill="#F1E3B4"/>
        <path d="M405.44 367.643H143.271C141.879 367.643 140.544 367.09 139.559 366.105C138.575 365.121 138.021 363.786 138.021 362.395C138.021 361.003 138.575 359.668 139.559 358.684C140.544 357.7 141.879 357.147 143.271 357.147H405.44C406.833 357.147 408.168 357.7 409.152 358.684C410.137 359.668 410.69 361.003 410.69 362.395C410.69 363.786 410.137 365.121 409.152 366.105C408.168 367.09 406.833 367.643 405.44 367.643Z" fill="#E8BB37"/>
        <path d="M404.57 424.905H143.271C141.879 424.905 140.544 424.352 139.559 423.368C138.575 422.384 138.021 421.049 138.021 419.657C138.021 418.265 138.575 416.93 139.559 415.946C140.544 414.962 141.879 414.409 143.271 414.409H404.57C405.963 414.409 407.298 414.962 408.282 415.946C409.267 416.93 409.82 418.265 409.82 419.657C409.82 421.049 409.267 422.384 408.282 423.368C407.298 424.352 405.963 424.905 404.57 424.905Z" fill="#E8BB37"/>
        <path d="M361.148 376.639H159.62C159.421 376.639 159.23 376.56 159.09 376.419C158.949 376.279 158.87 376.088 158.87 375.889C158.87 375.691 158.949 375.5 159.09 375.359C159.23 375.219 159.421 375.14 159.62 375.14H361.148C361.347 375.14 361.538 375.219 361.678 375.359C361.819 375.5 361.898 375.691 361.898 375.889C361.894 376.087 361.814 376.275 361.674 376.415C361.534 376.555 361.346 376.635 361.148 376.639Z" fill="#D9A957"/>
        <path d="M365.183 385.95H163.655C163.456 385.95 163.266 385.871 163.125 385.731C162.984 385.59 162.905 385.399 162.905 385.201C162.905 385.002 162.984 384.811 163.125 384.671C163.266 384.53 163.456 384.451 163.655 384.451H365.183C365.382 384.451 365.573 384.53 365.713 384.671C365.854 384.811 365.933 385.002 365.933 385.201C365.933 385.399 365.854 385.59 365.713 385.731C365.573 385.871 365.382 385.95 365.183 385.95Z" fill="#D9A957"/>
        <path d="M393.577 395.636H192.049C191.85 395.636 191.659 395.557 191.518 395.417C191.378 395.276 191.299 395.085 191.299 394.887C191.299 394.688 191.378 394.497 191.518 394.357C191.659 394.216 191.85 394.137 192.049 394.137H393.577C393.775 394.137 393.966 394.216 394.107 394.357C394.247 394.497 394.327 394.688 394.327 394.887C394.327 395.085 394.247 395.276 394.107 395.417C393.966 395.557 393.775 395.636 393.577 395.636Z" fill="#D9A957"/>
        <path d="M255.794 397.181L244.095 382.187L232.396 397.181V357.492C232.395 357.425 232.419 357.36 232.464 357.311C232.508 357.261 232.569 357.229 232.636 357.222C236.438 356.774 240.266 356.564 244.095 356.592C247.93 356.523 251.765 356.734 255.569 357.222C255.634 357.229 255.694 357.261 255.736 357.312C255.777 357.362 255.798 357.426 255.794 357.492V397.181Z" fill="#70A63B"/>
        <path d="M101.034 250.839L89.125 286.705L106.479 288.249L101.034 250.839Z" fill="#BB9D6C"/>
        <path d="M101.034 250.839L97.9893 260.016L102.429 260.406L101.034 250.839Z" fill="#211915"/>
        <path d="M106.448 288.579C106.518 287.814 106.281 287.052 105.788 286.461C105.296 285.871 104.589 285.5 103.824 285.43C103.058 285.361 102.296 285.598 101.705 286.09C101.114 286.582 100.743 287.289 100.674 288.054C100.707 287.307 100.45 286.576 99.958 286.012C99.4656 285.449 98.7749 285.097 98.0296 285.029C97.2842 284.962 96.5415 285.184 95.9557 285.649C95.37 286.115 94.9862 286.788 94.8842 287.53C94.9388 287.139 94.9134 286.741 94.8094 286.361C94.7055 285.98 94.5252 285.625 94.2795 285.316C94.0338 285.007 93.7279 284.752 93.3803 284.565C93.0327 284.378 92.6508 284.264 92.2577 284.229C91.8646 284.195 91.4685 284.24 91.0937 284.364C90.7188 284.487 90.3729 284.685 90.077 284.946C89.7811 285.207 89.5414 285.525 89.3725 285.882C89.2036 286.238 89.109 286.626 89.0945 287.02L70.7656 495.736L70.0907 503.413C70.0268 504.106 70.1004 504.804 70.3073 505.468C70.5143 506.132 70.8504 506.748 71.2964 507.282C71.7424 507.816 72.2896 508.256 72.9063 508.577C73.5231 508.899 74.1974 509.096 74.8904 509.156L81.685 509.771C83.0832 509.896 84.4737 509.46 85.551 508.561C86.6282 507.661 87.304 506.37 87.4296 504.973L87.6846 502.124L106.448 288.579Z" fill="#9BCBEE"/>
        <path d="M106.449 288.579C106.518 287.814 106.281 287.052 105.789 286.461C105.296 285.871 104.59 285.5 103.824 285.43C103.058 285.361 102.296 285.598 101.705 286.09C101.115 286.582 100.744 287.289 100.674 288.054C100.809 286.555 82.81 486.08 80.7852 509.696L81.6401 509.771C83.0383 509.895 84.4289 509.46 85.5061 508.56C86.5834 507.661 87.2591 506.37 87.3848 504.972L87.6398 502.124L106.449 288.579Z" fill="#7BBBE8"/>
        <path d="M74.0653 458.281L70.8705 495.766L70.1805 503.443C70.1166 504.136 70.1903 504.834 70.3972 505.498C70.6041 506.162 70.9402 506.778 71.3863 507.312C71.8323 507.845 72.3794 508.286 72.9962 508.607C73.6129 508.929 74.2872 509.126 74.9802 509.186L81.7748 509.801C83.177 509.925 84.5714 509.489 85.6514 508.586C86.7315 507.684 87.4088 506.389 87.5345 504.988L87.7894 502.154L91.4042 459.751L74.0653 458.281Z" fill="#332F2E"/>
        <path d="M74.0352 458.281L73.6152 462.959L90.9842 464.429L91.4192 459.751L74.0352 458.281Z" fill="#ECEDEF"/>
        <path d="M86.5894 429.598L84.2346 429.373L82.7646 446.736L85.1195 446.976L86.5894 429.598Z" fill="#332F2E"/>
        <path d="M83.1552 470.247L80.8004 470.037L80.0654 478.718L82.4203 478.928L83.1552 470.247Z" fill="#ECEDEF"/>
        <path d="M140.301 422.356C131.842 426.299 120.712 425.804 111.728 423.255C102.744 420.706 94.3891 416.418 85.6296 413.194C75.2901 409.146 64.4173 406.621 53.3516 405.697C81.9998 392.818 118.433 399.775 140.301 422.356Z" fill="#A1BC31"/>
        <path d="M88.6899 252.998C87.1721 252.989 85.6928 252.52 84.4475 251.653C83.2022 250.785 82.2495 249.561 81.7153 248.14L68.2161 211.945C67.4389 209.837 67.528 207.507 68.4639 205.465C69.3998 203.422 71.1064 201.833 73.2108 201.044C75.3197 200.271 77.6487 200.362 79.6908 201.298C81.7329 202.233 83.323 203.936 84.1151 206.037L92.4846 228.528C92.5301 228.652 92.5506 228.784 92.545 228.916C92.5395 229.048 92.5079 229.178 92.4522 229.297C92.3965 229.417 92.3176 229.525 92.2203 229.614C92.1229 229.703 92.0088 229.773 91.8847 229.818C91.7617 229.866 91.6304 229.888 91.4985 229.885C91.3666 229.881 91.2367 229.851 91.1165 229.797C90.9963 229.742 90.8883 229.664 90.7987 229.568C90.7091 229.471 90.6397 229.357 90.5948 229.233L82.2253 206.742C81.9394 205.934 81.4955 205.191 80.9196 204.556C80.3436 203.921 79.6471 203.407 78.8705 203.043C78.0939 202.68 77.2528 202.475 76.3961 202.44C75.5394 202.405 74.6843 202.54 73.8805 202.838C73.0767 203.137 72.3403 203.592 71.7141 204.178C71.088 204.763 70.5847 205.467 70.2334 206.249C69.8821 207.031 69.69 207.875 69.6681 208.732C69.6462 209.589 69.7951 210.441 70.106 211.24L83.6052 247.451C84.1064 248.797 85.122 249.889 86.4286 250.486C87.7352 251.084 89.2257 251.138 90.5723 250.637C91.9188 250.136 93.0111 249.121 93.6088 247.814C94.2066 246.508 94.2608 245.018 93.7596 243.672L83.8602 217.013C83.6834 216.448 83.3937 215.924 83.0087 215.474C82.6237 215.024 82.1513 214.656 81.6201 214.394C81.089 214.132 80.5101 213.98 79.9185 213.947C79.3269 213.915 78.7349 214.003 78.1783 214.206C77.6218 214.409 77.1122 214.723 76.6805 215.129C76.2487 215.534 75.9038 216.023 75.6666 216.566C75.4294 217.109 75.3047 217.694 75.3003 218.286C75.2958 218.878 75.4116 219.465 75.6407 220.012L81.8053 236.595C81.8988 236.846 81.8889 237.123 81.7778 237.366C81.6666 237.609 81.4634 237.799 81.2128 237.892C80.9622 237.985 80.6847 237.976 80.4414 237.864C80.1981 237.753 80.0089 237.55 79.9154 237.3L73.7508 220.716C73.4553 219.929 73.3179 219.091 73.3465 218.25C73.375 217.409 73.5689 216.582 73.9171 215.817C74.2653 215.051 74.761 214.361 75.3758 213.787C75.9907 213.213 76.7126 212.765 77.5005 212.47C79.0917 211.873 80.8548 211.933 82.4019 212.636C83.1679 212.984 83.8579 213.48 84.4324 214.094C85.0068 214.709 85.4546 215.431 85.75 216.218L95.6644 242.862C96.336 244.714 96.2515 246.756 95.4291 248.546C94.6067 250.336 93.1125 251.731 91.2697 252.429C90.4491 252.766 89.5763 252.959 88.6899 252.998Z" fill="#C2C3C8"/>
        <path d="M446.733 465.103C445.054 465.08 443.42 464.558 442.038 463.604C441.109 462.994 440.311 462.205 439.691 461.284C439.07 460.362 438.639 459.326 438.424 458.236L433.699 434.696C433.645 434.433 433.698 434.16 433.846 433.937C433.993 433.713 434.224 433.557 434.486 433.504C434.749 433.45 435.022 433.503 435.246 433.65C435.469 433.798 435.625 434.028 435.679 434.291L440.403 457.831C440.74 459.51 441.729 460.985 443.153 461.935C444.578 462.884 446.322 463.228 448 462.892C449.679 462.556 451.156 461.567 452.105 460.143C453.054 458.718 453.399 456.976 453.063 455.297L445.473 417.423C445.131 416.073 444.283 414.906 443.105 414.164C441.927 413.421 440.509 413.16 439.143 413.433C437.778 413.707 436.57 414.494 435.768 415.633C434.967 416.772 434.634 418.175 434.839 419.552L440.433 447.426C440.664 448.567 441.338 449.57 442.308 450.214C442.785 450.535 443.322 450.757 443.886 450.868C444.45 450.979 445.03 450.976 445.593 450.859C446.158 450.75 446.695 450.527 447.172 450.205C447.649 449.883 448.055 449.468 448.368 448.985C448.691 448.509 448.916 447.974 449.029 447.41C449.143 446.846 449.142 446.265 449.028 445.701L445.548 428.353C445.52 428.224 445.517 428.091 445.541 427.961C445.565 427.831 445.615 427.707 445.688 427.596C445.761 427.486 445.855 427.391 445.965 427.318C446.075 427.244 446.198 427.194 446.328 427.169C446.592 427.116 446.867 427.169 447.092 427.318C447.317 427.467 447.474 427.699 447.528 427.963L451.008 445.311C451.292 446.955 450.924 448.645 449.98 450.022C449.037 451.398 447.594 452.352 445.957 452.68C444.321 453.008 442.621 452.685 441.22 451.779C439.818 450.874 438.826 449.457 438.453 447.83L432.859 420.121C432.487 418.188 432.89 416.187 433.982 414.548C435.073 412.91 436.766 411.767 438.693 411.365C440.625 410.993 442.626 411.394 444.264 412.482C445.903 413.57 447.048 415.258 447.453 417.183L455.043 455.057C455.484 457.262 455.033 459.552 453.787 461.425C452.541 463.297 450.603 464.599 448.398 465.043C447.846 465.115 447.289 465.135 446.733 465.103Z" fill="#C2C3C8"/>
        <path d="M390.651 133.107L350.154 141.218L179.014 151.624L129.952 132.912L264.914 88.6643L390.651 133.107Z" fill="#273A53"/>
        <path d="M391.671 126.464L266.953 85.5006L266.713 85.4106C266.602 85.3566 266.487 85.3115 266.369 85.2757L266.039 85.2007C265.924 85.1851 265.808 85.1851 265.694 85.2007H265.004H264.614H264.389L129.037 125.969C128.222 126.201 127.518 126.719 127.054 127.428C126.589 128.136 126.396 128.988 126.509 129.828C126.622 130.667 127.034 131.438 127.669 131.999C128.304 132.56 129.119 132.873 129.967 132.882C130.282 132.88 130.594 132.834 130.897 132.747L264.929 92.3528L388.416 132.672C388.828 132.918 389.286 133.078 389.762 133.141C390.238 133.204 390.722 133.17 391.185 133.039C391.647 132.909 392.077 132.685 392.45 132.382C392.822 132.079 393.129 131.703 393.351 131.278C393.573 130.852 393.706 130.386 393.742 129.907C393.777 129.428 393.714 128.947 393.556 128.494C393.399 128.04 393.151 127.623 392.826 127.269C392.502 126.915 392.109 126.631 391.671 126.434V126.464Z" fill="#E8BB37"/>
        <path d="M244.8 99.5798V92.2178L239.521 94.107V101.469L244.8 99.5798Z" fill="#E2A91F"/>
        <path d="M350.168 206.007C350.168 206.007 298.931 211.54 264.913 211.54C224.896 211.54 179.014 206.007 179.014 206.007V133.496C206.72 124.279 235.713 119.512 264.913 119.372C309.836 119.372 350.168 133.496 350.168 133.496V206.007Z" fill="#39567D"/>
        <path d="M219.211 209.726C194.373 208.091 179.014 206.007 179.014 206.007V133.496C192.297 128.018 206.088 123.86 220.186 121.081L219.211 209.726Z" fill="#273A53"/>
        <path d="M265.078 212.77C209.582 212.77 185.583 208.856 179.014 207.507V201.209C182.343 201.959 205.367 206.622 265.078 206.622C296.202 206.622 342.234 201.974 350.168 201.149V207.267C340.599 208.316 295.737 212.77 265.078 212.77Z" fill="#E2A91F"/>
        <path d="M264.914 214.539C200.253 214.539 179.119 209.141 178.249 208.901C177.842 208.829 177.453 208.674 177.109 208.445C176.764 208.216 176.47 207.918 176.246 207.57C176.022 207.222 175.873 206.831 175.807 206.423C175.742 206.014 175.762 205.596 175.865 205.196C175.969 204.795 176.155 204.42 176.411 204.095C176.666 203.77 176.987 203.501 177.352 203.305C177.716 203.109 178.118 202.991 178.53 202.959C178.943 202.926 179.358 202.978 179.749 203.114C179.959 203.114 201.273 208.541 264.884 208.541C298.347 208.541 349.299 203.084 349.809 203.024C350.605 202.938 351.402 203.172 352.025 203.674C352.648 204.176 353.046 204.905 353.131 205.7C353.217 206.495 352.983 207.292 352.481 207.915C351.979 208.538 351.25 208.936 350.454 209.021C349.974 209.051 298.707 214.539 264.914 214.539Z" fill="#E8BB37"/>
        <path d="M243.96 127.139C243.413 125.781 243.035 124.361 242.835 122.911V93.2525C242.835 92.5526 242.557 91.8814 242.062 91.3865C241.567 90.8916 240.895 90.6135 240.195 90.6135C239.495 90.6135 238.824 90.8916 238.328 91.3865C237.833 91.8814 237.555 92.5526 237.555 93.2525V122.971C237.548 123.01 237.548 123.051 237.555 123.091C237.349 124.916 237.038 126.728 236.625 128.518C236.148 130.515 235.822 132.545 235.65 134.591C235.65 134.941 235.789 135.276 236.037 135.524C236.285 135.771 236.62 135.91 236.97 135.91C237.32 135.91 237.656 135.771 237.904 135.524C238.151 135.276 238.29 134.941 238.29 134.591C238.453 132.854 238.739 131.13 239.145 129.433C239.28 132.012 239.415 134.681 239.415 135.805C239.415 136.155 239.554 136.491 239.802 136.738C240.049 136.986 240.385 137.125 240.735 137.125C241.085 137.125 241.421 136.986 241.668 136.738C241.916 136.491 242.055 136.155 242.055 135.805C242.055 134.606 241.92 132.027 241.77 129.298V128.938C242.178 129.999 242.45 131.108 242.58 132.237C242.58 132.587 242.719 132.922 242.967 133.17C243.214 133.417 243.55 133.556 243.9 133.556C244.25 133.556 244.586 133.417 244.833 133.17C245.081 132.922 245.22 132.587 245.22 132.237C245.048 130.486 244.624 128.769 243.96 127.139Z" fill="#E8BB37"/>
        <path d="M264.584 177.834C264.385 177.834 264.194 177.755 264.054 177.614C263.913 177.473 263.834 177.283 263.834 177.084V154.308C263.834 154.109 263.913 153.919 264.054 153.778C264.194 153.637 264.385 153.558 264.584 153.558C264.783 153.558 264.974 153.637 265.114 153.778C265.255 153.919 265.334 154.109 265.334 154.308V177.084C265.334 177.283 265.255 177.473 265.114 177.614C264.974 177.755 264.783 177.834 264.584 177.834Z" fill="#273A53"/>
        <path d="M74.5606 150.02C58.2566 150.02 40.7227 147.021 40.7227 140.274C40.7227 133.526 58.2566 130.528 74.5606 130.528C90.8646 130.528 108.399 133.526 108.399 140.274C108.399 147.021 90.8496 150.02 74.5606 150.02ZM74.5606 133.961C54.8818 133.961 44.1574 138.13 44.1574 140.274C44.1574 142.418 54.8818 146.586 74.5606 146.586C94.2394 146.586 104.964 142.418 104.964 140.274C104.964 138.13 94.2244 133.961 74.5606 133.961Z" fill="#E8BB37"/>
        <path d="M89.4697 170.097C86.9498 170.097 83.695 168.042 79.7653 163.979C74.4956 158.256 69.9146 151.935 66.1161 145.147C57.9566 131.037 51.837 114.334 57.6416 110.975C60.3265 109.476 64.2562 111.32 69.3559 116.583C74.6211 122.305 79.2017 128.62 83.0051 135.401C91.1496 149.51 97.2842 166.228 91.4796 169.572C90.8706 169.928 90.1752 170.11 89.4697 170.097ZM59.6665 113.899C59.5635 113.87 59.4545 113.87 59.3515 113.899C57.5066 114.964 59.2465 126.344 69.0859 143.377C72.7547 149.914 77.1634 156.006 82.2251 161.535C86.9648 166.423 89.3197 166.798 89.7247 166.543C91.5846 165.464 89.8297 154.098 80.0053 137.065C76.3445 130.52 71.9297 124.426 66.8511 118.907C62.8163 114.769 60.5214 113.899 59.6665 113.899Z" fill="#E8BB37"/>
        <path d="M59.6518 170.097C58.9463 170.11 58.2509 169.928 57.6419 169.572C54.9571 168.073 54.6421 163.664 56.637 156.632C58.9525 149.208 62.1342 142.082 66.1164 135.401C74.2609 121.291 85.6152 107.632 91.4798 110.975C97.3445 114.319 91.1499 131.037 83.0054 145.147C79.2018 151.932 74.6212 158.252 69.3562 163.979C65.4114 168.043 62.1566 170.097 59.6518 170.097ZM89.32 113.854C86.7401 113.854 78.2956 121.186 69.0862 137.125C65.2512 143.563 62.1806 150.427 59.9368 157.577C58.0619 164.129 58.9168 166.348 59.3518 166.573C59.8018 166.828 62.1416 166.453 66.8513 161.565C71.923 156.041 76.3372 149.948 80.0056 143.407C89.83 126.374 91.5848 114.994 89.725 113.929C89.5987 113.87 89.4592 113.844 89.32 113.854Z" fill="#E8BB37"/>
        <path d="M74.5455 143.362C76.2437 143.362 77.6203 141.986 77.6203 140.289C77.6203 138.591 76.2437 137.215 74.5455 137.215C72.8473 137.215 71.4707 138.591 71.4707 140.289C71.4707 141.986 72.8473 143.362 74.5455 143.362Z" fill="#BE2D86"/>
        <path d="M540.162 280.378C536.751 278.696 533.004 277.805 529.2 277.77C525.397 277.736 521.634 278.559 518.193 280.179C514.751 281.799 511.719 284.173 509.323 287.126C506.926 290.079 505.226 293.534 504.349 297.234C503.473 300.934 503.442 304.784 504.259 308.498C505.076 312.211 506.72 315.693 509.069 318.684C511.418 321.675 514.411 324.098 517.826 325.773C521.241 327.448 524.989 328.332 528.793 328.358C531.515 328.354 534.219 327.913 536.803 327.054C541.55 325.473 545.723 322.521 548.794 318.571C551.864 314.62 553.695 309.849 554.054 304.859C554.414 299.87 553.286 294.885 550.813 290.536C548.341 286.187 544.635 282.667 540.162 280.423V280.378ZM549.072 311.22L545.067 309.166C546.15 306.622 546.804 303.917 547.002 301.159L550.662 303.004C550.672 305.82 550.132 308.611 549.072 311.22ZM534.883 316.918L525.988 312.42L529.588 305.253L540.462 310.71C539.033 313.129 537.136 315.24 534.883 316.918ZM506.969 302.929C506.973 300.132 507.518 297.362 508.574 294.772L512.579 296.781C511.496 299.32 510.842 302.02 510.644 304.773L506.969 302.929ZM515.639 298.31L526.513 303.768L522.928 310.935L514.034 306.437C514.032 303.649 514.577 300.888 515.639 298.31ZM522.703 289.044L531.703 293.542L528.118 300.709L517.244 295.267C518.637 292.854 520.492 290.739 522.703 289.044ZM539.202 286.15C541.236 288.941 542.643 292.137 543.327 295.522L536.293 291.998L539.202 286.15ZM533.203 290.454L526.168 286.945C529.282 285.464 532.679 284.671 536.128 284.621L533.203 290.454ZM521.398 313.994L518.474 319.842C516.482 317.055 515.106 313.875 514.439 310.516L521.398 313.994ZM524.473 315.494L531.433 318.972C528.343 320.45 524.973 321.253 521.548 321.326L524.473 315.494ZM531.148 302.194L534.733 295.027L543.732 299.525C543.707 302.316 543.141 305.075 542.067 307.652L531.148 302.194ZM550.317 298.985L546.987 297.321C546.656 293.717 545.584 290.22 543.837 287.05C547.209 290.256 549.473 294.452 550.302 299.03L550.317 298.985ZM528.868 281.097C530.096 281.108 531.32 281.223 532.528 281.442C528.956 281.981 525.535 283.253 522.478 285.176L519.134 283.496C522.15 281.977 525.476 281.172 528.853 281.142L528.868 281.097ZM515.714 285.491L519.389 287.335C517.298 289.141 515.519 291.278 514.124 293.662L510.119 291.653C511.564 289.271 513.459 287.193 515.699 285.536L515.714 285.491ZM508.079 309.841C507.771 308.859 507.53 307.857 507.359 306.842L510.689 308.506C511.021 312.128 512.104 315.642 513.869 318.822C511.225 316.368 509.231 313.298 508.064 309.886L508.079 309.841ZM525.058 324.475C528.644 323.973 532.09 322.743 535.183 320.861L538.512 322.526C534.347 324.6 529.631 325.299 525.043 324.52L525.058 324.475ZM541.962 320.412L538.287 318.582C540.379 316.772 542.158 314.629 543.552 312.24L547.542 314.249C546.099 316.662 544.198 318.771 541.947 320.457L541.962 320.412Z" fill="#9BCBEE"/>
        <path d="M485.356 487.969L492.3 487.235C492.423 487.221 492.548 487.235 492.665 487.275C492.781 487.315 492.888 487.38 492.977 487.466C493.066 487.552 493.135 487.656 493.178 487.772C493.222 487.887 493.24 488.011 493.23 488.134L491.73 507.446C491.712 507.642 491.626 507.826 491.487 507.965C491.349 508.105 491.167 508.193 490.971 508.214C490.776 508.236 490.579 508.189 490.414 508.081C490.249 507.974 490.126 507.814 490.065 507.626L484.636 489.094C484.592 488.972 484.576 488.843 484.59 488.714C484.604 488.586 484.648 488.462 484.717 488.353C484.787 488.245 484.881 488.153 484.992 488.087C485.102 488.02 485.227 487.98 485.356 487.969Z" fill="#D7D8DC"/>
        <path d="M467.447 288.444C466.708 288.52 465.968 288.301 465.39 287.835C464.811 287.369 464.44 286.693 464.357 285.955L462.017 264.964C461.975 264.597 462.006 264.226 462.108 263.872C462.21 263.518 462.381 263.187 462.611 262.899C462.84 262.61 463.125 262.37 463.448 262.192C463.771 262.014 464.125 261.901 464.492 261.86C464.858 261.82 465.229 261.853 465.582 261.957C465.936 262.061 466.266 262.233 466.553 262.464C466.84 262.696 467.078 262.981 467.255 263.304C467.431 263.628 467.542 263.983 467.582 264.349L469.937 285.341C470.017 286.082 469.799 286.825 469.333 287.406C468.866 287.988 468.188 288.361 467.447 288.444Z" fill="#332F2E"/>
        <path d="M488.94 488.209C486.149 488.504 483.356 487.685 481.167 485.929C478.978 484.174 477.572 481.625 477.256 478.838L455.387 277.918C454.757 272.146 475.801 269.837 476.386 275.624L498.269 476.544C498.565 479.325 497.751 482.11 496.004 484.294C494.257 486.478 491.718 487.885 488.94 488.209Z" fill="#D7D8DC"/>
        <path d="M488.94 488.209L465.437 272.401C470.701 271.831 476.116 272.701 476.431 275.594L498.315 476.514C498.618 479.307 497.801 482.106 496.044 484.298C494.287 486.49 491.733 487.896 488.94 488.209Z" fill="#ECEDEF"/>
        <path d="M464.116 357.822C463.853 357.85 463.587 357.827 463.334 357.752C463.08 357.678 462.843 357.555 462.637 357.389C462.431 357.223 462.259 357.019 462.132 356.787C462.005 356.555 461.925 356.3 461.897 356.037C461.868 355.774 461.892 355.508 461.966 355.255C462.04 355.001 462.163 354.764 462.329 354.558C462.495 354.352 462.7 354.181 462.932 354.054C463.164 353.927 463.418 353.847 463.681 353.818L484.68 351.464C484.943 351.435 485.209 351.458 485.464 351.532C485.718 351.606 485.955 351.73 486.161 351.895C486.367 352.061 486.539 352.266 486.665 352.498C486.792 352.73 486.872 352.985 486.9 353.248C486.959 353.781 486.804 354.316 486.47 354.734C486.135 355.153 485.648 355.422 485.115 355.483L464.116 357.822Z" fill="#332F2E"/>
        <path d="M486.946 330.158C486.415 330.212 485.885 330.056 485.469 329.722C485.053 329.388 484.786 328.903 484.726 328.373L481.726 301.249C481.667 300.716 481.822 300.182 482.157 299.763C482.491 299.344 482.978 299.075 483.511 299.015C483.774 298.986 484.04 299.009 484.294 299.083C484.549 299.157 484.786 299.28 484.992 299.446C485.198 299.612 485.37 299.817 485.496 300.049C485.623 300.281 485.703 300.536 485.731 300.799L488.731 327.924C488.79 328.456 488.635 328.991 488.3 329.41C487.966 329.828 487.479 330.097 486.946 330.158Z" fill="#332F2E"/>
        <path d="M477.946 289.524C477.417 289.571 476.891 289.411 476.477 289.078C476.063 288.746 475.794 288.266 475.726 287.739C475.667 287.207 475.822 286.672 476.157 286.254C476.491 285.835 476.978 285.566 477.511 285.505L485.716 284.561C486.232 284.534 486.739 284.707 487.133 285.042C487.526 285.377 487.776 285.851 487.832 286.365C487.888 286.878 487.744 287.394 487.432 287.806C487.119 288.218 486.661 288.494 486.151 288.579L477.946 289.509V289.524Z" fill="#332F2E"/>
        <path d="M457.008 292.793C456.212 292.878 455.415 292.644 454.792 292.142C454.169 291.64 453.771 290.911 453.685 290.116C453.6 289.321 453.834 288.524 454.336 287.901C454.838 287.278 455.567 286.88 456.363 286.795L477.361 284.501C477.755 284.459 478.154 284.494 478.534 284.606C478.914 284.717 479.269 284.903 479.577 285.151C479.886 285.4 480.142 285.707 480.332 286.054C480.522 286.402 480.641 286.784 480.684 287.177C480.726 287.571 480.69 287.969 480.579 288.349C480.467 288.729 480.282 289.084 480.033 289.392C479.784 289.701 479.478 289.957 479.13 290.147C478.782 290.337 478.4 290.456 478.006 290.499L457.008 292.793Z" fill="#332F2E"/>
        <path d="M483.886 302.988C483.464 303.031 483.04 302.942 482.671 302.734C482.44 302.602 482.238 302.425 482.077 302.215C481.915 302.004 481.796 301.764 481.728 301.507C481.659 301.251 481.643 300.983 481.678 300.72C481.714 300.457 481.802 300.204 481.936 299.975L485.131 294.427C485.255 294.182 485.427 293.965 485.638 293.789C485.849 293.613 486.093 293.482 486.356 293.403C486.619 293.324 486.896 293.3 487.168 293.331C487.441 293.363 487.705 293.449 487.943 293.586C488.181 293.722 488.389 293.906 488.554 294.125C488.719 294.344 488.838 294.595 488.903 294.861C488.969 295.128 488.979 295.405 488.934 295.676C488.889 295.946 488.789 296.205 488.64 296.436L485.431 301.984C485.269 302.26 485.045 302.495 484.777 302.669C484.509 302.843 484.204 302.953 483.886 302.988Z" fill="#332F2E"/>
        <path d="M487.096 297.441C486.83 297.474 486.561 297.455 486.304 297.384C486.046 297.313 485.805 297.192 485.595 297.028C485.384 296.863 485.208 296.659 485.077 296.426C484.946 296.193 484.862 295.937 484.831 295.671L483.886 286.81C483.84 286.537 483.85 286.258 483.916 285.989C483.982 285.721 484.102 285.469 484.27 285.248C484.437 285.028 484.648 284.844 484.889 284.709C485.13 284.573 485.397 284.488 485.672 284.459C485.947 284.431 486.225 284.459 486.489 284.542C486.753 284.624 486.997 284.761 487.207 284.942C487.416 285.122 487.586 285.344 487.706 285.594C487.826 285.843 487.894 286.114 487.905 286.39L488.85 295.252C488.897 295.772 488.741 296.291 488.414 296.699C488.087 297.107 487.614 297.373 487.096 297.441Z" fill="#332F2E"/>
        <path d="M495.525 470.066L478.591 471.866C478.296 471.916 478.014 472.025 477.762 472.187C477.511 472.349 477.295 472.561 477.128 472.809C476.961 473.058 476.846 473.337 476.791 473.631C476.736 473.925 476.741 474.228 476.806 474.52C479.611 500.969 488.145 500.639 488.145 500.639L492.225 500.204C492.225 500.204 500.64 498.705 497.835 472.286C497.837 471.986 497.778 471.689 497.662 471.412C497.545 471.136 497.374 470.887 497.158 470.679C496.941 470.471 496.685 470.31 496.404 470.204C496.124 470.099 495.824 470.052 495.525 470.066Z" fill="#9BCBEE"/>
        <path d="M476.401 473.56C476.05 473.567 475.709 473.442 475.445 473.211C475.18 472.979 475.012 472.658 474.973 472.309C474.933 471.96 475.026 471.609 475.231 471.325C475.437 471.04 475.742 470.843 476.086 470.771L497.084 468.417C497.442 468.412 497.789 468.534 498.064 468.763C498.339 468.991 498.524 469.31 498.584 469.662C498.59 470.019 498.467 470.366 498.239 470.641C498.011 470.916 497.692 471.1 497.339 471.161L476.341 473.5L476.401 473.56Z" fill="#332F2E"/>
        <path d="M491.01 508.196C490.92 508.206 490.828 508.198 490.74 508.172C490.653 508.147 490.571 508.104 490.5 508.046C490.425 507.99 490.364 507.917 490.32 507.835C490.276 507.752 490.25 507.66 490.245 507.567C490.232 507.476 490.238 507.383 490.264 507.295C490.29 507.207 490.335 507.126 490.395 507.057C490.512 506.916 490.68 506.827 490.862 506.807C491.043 506.787 491.226 506.839 491.37 506.952C491.45 507.002 491.513 507.075 491.55 507.162C491.6 507.238 491.631 507.326 491.64 507.417C491.651 507.511 491.642 507.606 491.614 507.697C491.585 507.787 491.538 507.87 491.475 507.941C491.421 508.012 491.355 508.073 491.28 508.121C491.195 508.162 491.104 508.187 491.01 508.196Z" fill="#332F2E"/>
        <path d="M452.763 503.893L416 495.136L415.955 512.544L452.763 503.893Z" fill="#BB9D6C"/>
        <path d="M452.763 503.893L443.358 501.659V506.112L452.763 503.893Z" fill="#211915"/>
        <path d="M415.625 512.545C414.861 511.003 414.739 509.222 415.288 507.591C415.836 505.961 417.009 504.615 418.55 503.848C418.151 503.877 417.751 503.823 417.374 503.69C416.997 503.557 416.651 503.348 416.359 503.076C416.066 502.804 415.833 502.474 415.673 502.108C415.514 501.742 415.431 501.346 415.431 500.947C415.431 500.547 415.514 500.152 415.673 499.785C415.833 499.419 416.066 499.09 416.359 498.817C416.651 498.545 416.997 498.336 417.374 498.203C417.751 498.07 418.151 498.017 418.55 498.045C418.552 497.664 418.478 497.286 418.334 496.933C418.189 496.581 417.976 496.26 417.707 495.989C417.438 495.719 417.119 495.505 416.766 495.358C416.414 495.212 416.036 495.137 415.655 495.137L176.06 494.957H168.35C167.654 494.953 166.963 495.086 166.318 495.349C165.673 495.613 165.087 496.001 164.592 496.491C164.097 496.981 163.704 497.564 163.436 498.207C163.167 498.849 163.027 499.538 163.025 500.234V507.087C163.023 507.783 163.159 508.473 163.424 509.117C163.689 509.761 164.079 510.346 164.571 510.839C165.063 511.332 165.647 511.723 166.29 511.99C166.934 512.257 167.624 512.395 168.32 512.395H171.155L415.625 512.545Z" fill="#70A63B"/>
        <path d="M415.625 512.545C416.359 512.492 417.045 512.163 417.546 511.625C418.048 511.087 418.326 510.379 418.326 509.643C418.326 508.908 418.048 508.2 417.546 507.662C417.045 507.123 416.359 506.795 415.625 506.742C417.125 506.742 186.739 506.127 163.025 506.142V507.087C163.023 507.783 163.159 508.473 163.424 509.117C163.689 509.761 164.079 510.346 164.571 510.839C165.063 511.332 165.647 511.723 166.29 511.99C166.934 512.257 167.624 512.395 168.32 512.395H171.155L415.625 512.545Z" fill="#A1BC31"/>
        <path d="M213.707 495.002H176.075H168.35C167.653 495 166.962 495.135 166.317 495.4C165.672 495.665 165.086 496.054 164.591 496.546C164.097 497.037 163.704 497.621 163.435 498.265C163.167 498.908 163.027 499.598 163.025 500.295V507.087C163.023 507.784 163.159 508.475 163.424 509.119C163.689 509.764 164.078 510.35 164.57 510.845C165.062 511.339 165.646 511.731 166.289 512C166.933 512.269 167.623 512.408 168.32 512.41H171.155H213.737L213.707 495.002Z" fill="#332F2E"/>
        <path d="M213.692 494.987L208.997 494.972L209.042 512.395L213.737 512.425L213.692 494.987Z" fill="#ECEDEF"/>
        <path d="M243.361 505.003L243.391 502.634L225.962 502.679L225.932 505.048L243.361 505.003Z" fill="#332F2E"/>
        <path d="M202.563 505.108L202.578 502.739L193.849 502.768V505.123L202.563 505.108Z" fill="#ECEDEF"/>
        <g opacity="0.4">
            <path opacity="0.4" d="M341.754 136.75C363.814 136.75 381.697 118.873 381.697 96.8211C381.697 74.7689 363.814 56.8921 341.754 56.8921C319.694 56.8921 301.812 74.7689 301.812 96.8211C301.812 118.873 319.694 136.75 341.754 136.75Z" fill="#9BCBEE"/>
        </g>
        <path d="M319.841 135.236C310.943 130.168 304.079 122.173 300.417 112.613C296.755 103.053 296.522 92.5198 299.759 82.8076C302.995 73.0955 309.5 64.8055 318.165 59.3501C326.83 53.8948 337.119 51.6117 347.279 52.8898C357.439 54.1678 366.841 58.9281 373.884 66.3593C380.927 73.7906 385.175 83.4332 385.903 93.6441C386.631 103.855 383.795 114.002 377.878 122.357C371.961 130.712 363.329 136.758 353.453 139.464C347.848 141.002 341.994 141.42 336.226 140.694C330.458 139.969 324.89 138.114 319.841 135.236ZM359.348 65.8735C352.192 61.8079 343.847 60.3484 335.736 61.7438C327.624 63.1391 320.247 67.3029 314.862 73.5257C309.477 79.7485 306.417 87.6454 306.203 95.8707C305.989 104.096 308.635 112.141 313.69 118.635C318.744 125.129 325.895 129.67 333.923 131.485C341.951 133.299 350.361 132.275 357.718 128.586C365.076 124.897 370.926 118.773 374.273 111.255C377.62 103.738 378.256 95.2933 376.072 87.3599C374.835 82.8607 372.723 78.6497 369.856 74.9678C366.988 71.286 363.423 68.2058 359.363 65.9035L359.348 65.8735Z" fill="#211915"/>
        <path d="M317.725 80.8674L317.56 80.7624C317.327 80.6019 317.127 80.3966 316.974 80.1586C316.82 79.9206 316.715 79.6544 316.665 79.3756C316.615 79.0967 316.62 78.8107 316.681 78.534C316.742 78.2573 316.857 77.9955 317.02 77.7636C318.818 75.1564 320.912 72.7664 323.26 70.6415C323.684 70.2438 324.248 70.0307 324.829 70.0489C325.41 70.0672 325.96 70.3154 326.357 70.7389C326.755 71.1624 326.968 71.7266 326.95 72.3072C326.932 72.8879 326.683 73.4375 326.26 73.8352C324.156 75.7526 322.274 77.9002 320.65 80.2376C320.338 80.6997 319.86 81.0234 319.314 81.1407C318.769 81.2581 318.2 81.1602 317.725 80.8674Z" fill="#F7F7F8"/>
        <path d="M312.731 90.7485C312.29 90.4992 311.951 90.1027 311.773 89.6285C311.595 89.1543 311.589 88.6326 311.756 88.1545C312.334 86.4506 313.025 84.7875 313.826 83.1765C313.95 82.9198 314.123 82.6903 314.336 82.5011C314.548 82.312 314.797 82.1672 315.066 82.0751C315.336 81.9829 315.621 81.9454 315.905 81.9646C316.189 81.9838 316.467 82.0594 316.721 82.1869C317.231 82.4447 317.621 82.8917 317.806 83.4324C317.991 83.9731 317.957 84.5647 317.711 85.0808C317.001 86.5414 316.38 88.0435 315.851 89.579C315.76 89.8497 315.616 90.0997 315.428 90.3144C315.239 90.5291 315.01 90.7043 314.753 90.8298C314.497 90.9553 314.217 91.0287 313.932 91.0456C313.647 91.0625 313.361 91.0227 313.091 90.9284L312.731 90.7485Z" fill="#F7F7F8"/>
        <path d="M367.478 207.087C365.997 206.226 364.918 204.813 364.478 203.158L346.689 139.119C346.233 137.457 346.457 135.682 347.311 134.184C348.165 132.687 349.578 131.59 351.241 131.135C352.904 130.679 354.68 130.903 356.178 131.756C357.675 132.61 358.773 134.023 359.228 135.685L376.972 199.71C377.312 200.95 377.277 202.264 376.87 203.484C376.464 204.705 375.705 205.778 374.689 206.567C373.673 207.356 372.445 207.827 371.162 207.92C369.879 208.012 368.597 207.722 367.478 207.087Z" fill="#211915"/>
        <path d="M346.734 148.22C346.158 147.911 345.688 147.435 345.387 146.853C345.087 146.272 344.969 145.614 345.05 144.964C345.132 144.315 345.408 143.706 345.842 143.216C346.277 142.727 346.849 142.381 347.484 142.223L360.039 138.774C360.855 138.59 361.711 138.727 362.429 139.158C363.147 139.588 363.671 140.278 363.893 141.085C364.115 141.892 364.018 142.753 363.621 143.49C363.225 144.227 362.559 144.782 361.763 145.042L349.209 148.49C348.799 148.612 348.37 148.651 347.945 148.605C347.52 148.559 347.108 148.428 346.734 148.22Z" fill="#E8BB37"/>
        <path d="M264.584 46.906C263.987 46.906 263.415 46.6691 262.993 46.2473C262.571 45.8255 262.334 45.2534 262.334 44.6569V26.6641C262.334 26.0676 262.571 25.4956 262.993 25.0738C263.415 24.652 263.987 24.415 264.584 24.415C265.181 24.415 265.753 24.652 266.175 25.0738C266.597 25.4956 266.834 26.0676 266.834 26.6641V44.6569C266.834 45.2534 266.597 45.8255 266.175 46.2473C265.753 46.6691 265.181 46.906 264.584 46.906Z" fill="#E8BB37"/>
        <path d="M227.206 53.8484C226.911 53.8517 226.619 53.7964 226.346 53.6857C226.073 53.5751 225.825 53.4112 225.616 53.2036L212.867 40.4587C212.449 40.0351 212.215 39.4642 212.215 38.8694C212.215 38.2745 212.449 37.7036 212.867 37.28C213.075 37.0696 213.322 36.9026 213.595 36.7886C213.868 36.6747 214.161 36.616 214.457 36.616C214.752 36.616 215.045 36.6747 215.318 36.7886C215.591 36.9026 215.839 37.0696 216.047 37.28L228.796 50.0099C229.11 50.3244 229.324 50.725 229.411 51.161C229.497 51.597 229.453 52.049 229.283 52.4597C229.112 52.8704 228.824 53.2215 228.455 53.4687C228.085 53.7158 227.651 53.848 227.206 53.8484Z" fill="#E8BB37"/>
        <path d="M301.977 53.8483C301.683 53.8516 301.39 53.7964 301.117 53.6857C300.844 53.575 300.596 53.4111 300.387 53.2035C300.176 52.9944 300.009 52.7457 299.895 52.4716C299.78 52.1975 299.722 51.9036 299.722 51.6067C299.722 51.3098 299.78 51.0158 299.895 50.7417C300.009 50.4676 300.176 50.2189 300.387 50.0098L313.121 37.2799C313.548 36.8826 314.112 36.6663 314.695 36.6766C315.278 36.6869 315.834 36.9229 316.246 37.335C316.658 37.7471 316.894 38.303 316.905 38.8857C316.915 39.4684 316.699 40.0323 316.301 40.4586L303.567 53.2035C303.143 53.6199 302.571 53.8517 301.977 53.8483Z" fill="#E8BB37"/>
    </g>
    <defs>
        <clipPath id="clip0_78_21358">
            <rect width="577" height="512" fill="white" transform="translate(0 0.55957)"/>
        </clipPath>
    </defs>
</svg>
