<svg xmlns="http://www.w3.org/2000/svg" display="none">

    <symbol id="location" viewBox="0 0 16 16">
        <path fill-rule="evenodd" clip-rule="evenodd"
              d="M11.536 3.4639C12.0004 3.92821 12.3689 4.47946 12.6202 5.08618C12.8716 5.69289 13.0009 6.34318 13.0009 6.9999C13.0009 7.65662 12.8716 8.3069 12.6202 8.91362C12.3689 9.52033 12.0004 10.0716 11.536 10.5359L8 14.0699L4.464 10.5349C3.99965 10.0706 3.6313 9.51927 3.38 8.91257C3.12869 8.30586 2.99934 7.65559 2.99934 6.9989C2.99934 6.3422 3.12869 5.69194 3.38 5.08523C3.6313 4.47852 3.99965 3.92725 4.464 3.4629C4.92836 2.99854 5.47963 2.6302 6.08633 2.37889C6.69304 2.12758 7.34331 1.99824 8 1.99824C8.6567 1.99824 9.30696 2.12758 9.91367 2.37889C10.5204 2.6302 11.0716 2.99854 11.536 3.4629V3.4639ZM12.596 11.5959C13.5051 10.6869 14.1242 9.52869 14.3751 8.2678C14.6259 7.00691 14.4972 5.69994 14.0053 4.51219C13.5133 3.32444 12.6802 2.30925 11.6113 1.59499C10.5423 0.880744 9.2856 0.499512 8 0.499512C6.7144 0.499512 5.45767 0.880744 4.38874 1.59499C3.31981 2.30925 2.48669 3.32444 1.99473 4.51219C1.50278 5.69994 1.37409 7.00691 1.62494 8.2678C1.87579 9.52869 2.49491 10.6869 3.404 11.5959L6.939 15.1319C7.0783 15.2713 7.2437 15.3819 7.42576 15.4573C7.60781 15.5328 7.80294 15.5716 8 15.5716C8.19707 15.5716 8.3922 15.5328 8.57425 15.4573C8.7563 15.3819 8.9217 15.2713 9.061 15.1319L12.596 11.5959ZM8 8.9999C8.53044 8.9999 9.03914 8.78918 9.41422 8.41411C9.78929 8.03904 10 7.53033 10 6.9999C10 6.46946 9.78929 5.96076 9.41422 5.58568C9.03914 5.21061 8.53044 4.9999 8 4.9999C7.46957 4.9999 6.96086 5.21061 6.58579 5.58568C6.21072 5.96076 6 6.46946 6 6.9999C6 7.53033 6.21072 8.03904 6.58579 8.41411C6.96086 8.78918 7.46957 8.9999 8 8.9999Z"/>
    </symbol>


    <symbol id="arrow-top" viewBox="0 0 24 61">
        <path d="M13.0607 0.939343C12.4749 0.353558 11.5251 0.353558 10.9393 0.939342L1.3934 10.4853C0.807618 11.0711 0.807618 12.0208 1.3934 12.6066C1.97919 13.1924 2.92894 13.1924 3.51473 12.6066L12 4.12132L20.4853 12.6066C21.0711 13.1924 22.0208 13.1924 22.6066 12.6066C23.1924 12.0208 23.1924 11.0711 22.6066 10.4853L13.0607 0.939343ZM13.5 61L13.5 2L10.5 2L10.5 61L13.5 61Z"/>
    </symbol>

    <symbol id="arrow-bottom" viewBox="0 0 24 61">
        <path d="M10.9393 60.0607C11.5251 60.6464 12.4749 60.6464 13.0607 60.0607L22.6066 50.5147C23.1924 49.9289 23.1924 48.9792 22.6066 48.3934C22.0208 47.8076 21.0711 47.8076 20.4853 48.3934L12 56.8787L3.51472 48.3934C2.92893 47.8076 1.97918 47.8076 1.3934 48.3934C0.807609 48.9792 0.807609 49.9289 1.3934 50.5147L10.9393 60.0607ZM10.5 -6.55671e-08L10.5 59L13.5 59L13.5 6.55671e-08L10.5 -6.55671e-08Z"/>
    </symbol>

    <symbol id="arrow-right" viewBox="0 0 58 16">
        <path d="M57.7071 8.5799C58.0976 8.18938 58.0976 7.55622 57.7071 7.16569L51.3431 0.80173C50.9526 0.411206 50.3195 0.411206 49.9289 0.801731C49.5384 1.19226 49.5384 1.82542 49.9289 2.21594L55.5858 7.8728L49.9289 13.5297C49.5384 13.9202 49.5384 14.5533 49.9289 14.9439C50.3195 15.3344 50.9526 15.3344 51.3431 14.9439L57.7071 8.5799ZM8.83334e-08 8.8728L57 8.8728L57 6.8728L-8.83334e-08 6.8728L8.83334e-08 8.8728Z"/>
    </symbol>

    <symbol id="search" viewBox="0 0 23 22">
        <path fill-rule="evenodd" clip-rule="evenodd"
              d="M16.9687 9.72185C16.9687 10.6013 16.7868 11.4722 16.4334 12.2848C16.0801 13.0973 15.5621 13.8356 14.9093 14.4576C14.2564 15.0794 13.4813 15.5728 12.6282 15.9094C11.7751 16.2459 10.8608 16.4192 9.93744 16.4192C9.01408 16.4192 8.09977 16.2459 7.24669 15.9094C6.39363 15.5728 5.6185 15.0794 4.96559 14.4576C4.31267 13.8356 3.79477 13.0973 3.44141 12.2848C3.08805 11.4722 2.90619 10.6013 2.90619 9.72185C2.90619 7.9456 3.64697 6.24212 4.96559 4.98613C6.2842 3.73013 8.07263 3.02453 9.93744 3.02453C11.8022 3.02453 13.5907 3.73013 14.9093 4.98613C16.2279 6.24212 16.9687 7.9456 16.9687 9.72185ZM15.6875 16.7763C13.8037 18.1694 11.4333 18.8262 9.059 18.613C6.68467 18.4001 4.48484 17.3331 2.90736 15.6295C1.32986 13.9258 0.493297 11.7136 0.567954 9.44316C0.642626 7.1727 1.62291 5.01468 3.30924 3.40844C4.99558 1.8022 7.26119 0.868475 9.64486 0.79735C12.0285 0.726235 14.351 1.52307 16.1396 3.02565C17.9282 4.52821 19.0484 6.62356 19.272 8.88513C19.4957 11.1467 18.8062 13.4044 17.3437 15.1988L22.0937 19.7232C22.2089 19.8254 22.3012 19.9486 22.3653 20.0856C22.4293 20.2225 22.4637 20.3703 22.4665 20.5201C22.4693 20.67 22.4403 20.8188 22.3814 20.9578C22.3225 21.0969 22.2346 21.2231 22.1234 21.329C22.0121 21.4351 21.8796 21.5186 21.7337 21.5747C21.5878 21.6309 21.4315 21.6585 21.2742 21.6559C21.1168 21.6532 20.9615 21.6204 20.8179 21.5594C20.6742 21.4984 20.5448 21.4104 20.4375 21.3008L15.6875 16.7763Z"/>
    </symbol>

    <symbol id="close" viewBox="0 0 24 25">
        <path d="M21 21.3212L3 3.32129" stroke-width="2" stroke-linecap="round"
              stroke-linejoin="round"/>
        <path d="M21.0001 3.32129L3 21.3213" stroke-width="2" stroke-linecap="round"
              stroke-linejoin="round"/>
    </symbol>

    <symbol id="prev" viewBox="0 0 10 17">
        <path d="M7.91806 16.4984C8.30858 16.889 8.94174 16.889 9.33227 16.4984C9.72279 16.1079 9.72279 15.4748 9.33227 15.0842L7.91806 16.4984ZM1.3335 8.49968L0.626389 7.79257C0.235865 8.18309 0.235865 8.81626 0.626389 9.20678L1.3335 8.49968ZM9.33227 1.91511C9.72279 1.52459 9.72279 0.891425 9.33227 0.500901C8.94174 0.110377 8.30858 0.110377 7.91806 0.500901L9.33227 1.91511ZM9.33227 15.0842L2.0406 7.79257L0.626389 9.20678L7.91806 16.4984L9.33227 15.0842ZM2.0406 9.20678L9.33227 1.91511L7.91806 0.500901L0.626389 7.79257L2.0406 9.20678Z"/>
    </symbol>

    <symbol id="next" viewBox="0 0 10 17">
        <path d="M2.08195 0.50155C1.69142 0.111026 1.05826 0.111026 0.667732 0.50155C0.277208 0.892074 0.277208 1.52524 0.667732 1.91576L2.08195 0.50155ZM8.6665 8.50032L9.37361 9.20743C9.76414 8.81691 9.76414 8.18374 9.37361 7.79322L8.6665 8.50032ZM0.667731 15.0849C0.277206 15.4754 0.277206 16.1086 0.667731 16.4991C1.05825 16.8896 1.69142 16.8896 2.08194 16.4991L0.667731 15.0849ZM0.667732 1.91576L7.9594 9.20743L9.37361 7.79322L2.08195 0.50155L0.667732 1.91576ZM7.9594 7.79322L0.667731 15.0849L2.08194 16.4991L9.37361 9.20743L7.9594 7.79322Z"/>
    </symbol>

</svg>