<svg width="852" height="606" viewBox="0 0 852 606" fill="none" xmlns="http://www.w3.org/2000/svg">
    <path d="M289.934 1082.09L255.84 1162.31L199.03 1096.2L155.192 1045.18L108.296 1093.4L47.5241 1155.89L18.4332 1073.72L-4.01509 1010.31L-65.1637 1038.34L-144.406 1074.65L-141.849 987.524L-139.876 920.288L-207.019 924.331L-294.03 929.57L-260.17 849.247L-234.042 787.264L-298.111 766.779L-381.139 740.232L-320.55 677.565L-273.795 629.206L-326.138 586.96L-393.969 532.213L-314.833 495.664L-253.767 467.461L-287.314 409.159L-330.788 333.606L-243.793 328.112L-176.662 323.873L-186.882 257.39L-200.127 171.234L-117.023 197.538L-52.8935 217.835L-38.4074 152.149L-19.6349 67.0263L48.356 121.575L100.822 163.668L138.059 107.65L186.313 35.0572L230.008 110.483L263.725 168.687L318.683 129.904L389.903 79.6441L403.4 165.761L413.815 232.215L479.072 215.903L563.638 194.765L545.114 279.942L530.82 345.671L597.563 354.034L684.055 364.873L636.012 437.606L598.939 493.733L658.154 525.642L734.89 566.993L663.817 617.46L608.973 656.404L652.662 707.549L709.278 773.828L624.774 795.213L559.565 811.715L581.828 875.188L610.679 957.444L524.155 946.858L457.389 938.69L455.219 1005.92L452.407 1093.04L375.551 1051.92L316.244 1020.18L289.934 1082.09Z" stroke="#3EBFB4" stroke-width="123"/>
</svg>
