<svg width="197" height="195" viewBox="0 0 197 195" fill="none" xmlns="http://www.w3.org/2000/svg">
    <path d="M98.5 0L111.627 36.7412L138.564 8.51577L135.612 47.4199L171.7 32.5906L153.18 66.9308L192.179 68.0618L161.293 91.9002L196.46 108.796L158.548 118.011L183.803 147.75L145.421 140.748L156.397 178.188L124.181 156.18L118.979 194.848L98.5 161.638L78.0207 194.848L72.8193 156.18L40.6032 178.188L51.579 140.748L13.1965 147.75L38.4517 118.011L0.539597 108.796L35.7074 91.9002L4.82093 68.0618L43.8205 66.9308L25.3002 32.5906L61.3881 47.4199L58.4364 8.51577L85.3728 36.7412L98.5 0Z" fill="#FF6969"/>
</svg>
